<?xml version="1.0" standalone="no"?>
<!DOCTYPE svg PUBLIC "-//W3C//DTD SVG 1.1//EN"
"http://www.w3.org/Graphics/SVG/1.1/DTD/svg11.dtd">
<svg viewBox="0 0 540 640" version="1.1"
xmlns="http://www.w3.org/2000/svg" xmlns:xlink="http://www.w3.org/1999/xlink">
<rect x="0" y="0" width="540" height="640" style="stroke:none; fill:#ffffff;" />
<image x="60" y="145" width="400" height="465" xlink:href="example1-1.png" transform="matrix(1 0 0 1 0 0)" />
<rect x="60" y="145" width="400" height="465" style="stroke: #000000; stroke-width:0.5; fill:none;" />
<line x1="60" y1="145" x2="60" y2="610" style=" fill: none; stroke: #000000; stroke-width:0.5;" />
<line x1="60" y1="610" x2="60" y2="613" style=" fill: none; stroke: #000000; stroke-width:0.5;" />
<line x1="60" y1="145" x2="60" y2="142" style=" fill: none; stroke: #000000; stroke-width:0.5;" />
<line x1="126.667" y1="145" x2="126.667" y2="610" style=" fill: none; stroke: #000000; stroke-width:0.5;" />
<line x1="126.667" y1="610" x2="126.667" y2="613" style=" fill: none; stroke: #000000; stroke-width:0.5;" />
<line x1="126.667" y1="145" x2="126.667" y2="142" style=" fill: none; stroke: #000000; stroke-width:0.5;" />
<line x1="193.333" y1="145" x2="193.333" y2="610" style=" fill: none; stroke: #000000; stroke-width:0.5;" />
<line x1="193.333" y1="610" x2="193.333" y2="613" style=" fill: none; stroke: #000000; stroke-width:0.5;" />
<line x1="193.333" y1="145" x2="193.333" y2="142" style=" fill: none; stroke: #000000; stroke-width:0.5;" />
<line x1="260" y1="145" x2="260" y2="610" style=" fill: none; stroke: #000000; stroke-width:0.5;" />
<line x1="260" y1="610" x2="260" y2="613" style=" fill: none; stroke: #000000; stroke-width:0.5;" />
<line x1="260" y1="145" x2="260" y2="142" style=" fill: none; stroke: #000000; stroke-width:0.5;" />
<line x1="326.667" y1="145" x2="326.667" y2="610" style=" fill: none; stroke: #000000; stroke-width:0.5;" />
<line x1="326.667" y1="610" x2="326.667" y2="613" style=" fill: none; stroke: #000000; stroke-width:0.5;" />
<line x1="326.667" y1="145" x2="326.667" y2="142" style=" fill: none; stroke: #000000; stroke-width:0.5;" />
<line x1="393.333" y1="145" x2="393.333" y2="610" style=" fill: none; stroke: #000000; stroke-width:0.5;" />
<line x1="393.333" y1="610" x2="393.333" y2="613" style=" fill: none; stroke: #000000; stroke-width:0.5;" />
<line x1="393.333" y1="145" x2="393.333" y2="142" style=" fill: none; stroke: #000000; stroke-width:0.5;" />
<line x1="460" y1="145" x2="460" y2="610" style=" fill: none; stroke: #000000; stroke-width:0.5;" />
<line x1="460" y1="610" x2="460" y2="613" style=" fill: none; stroke: #000000; stroke-width:0.5;" />
<line x1="460" y1="145" x2="460" y2="142" style=" fill: none; stroke: #000000; stroke-width:0.5;" />
<line x1="60" y1="610" x2="60" y2="613" style=" fill: none; stroke: #000000; stroke-width:0.5;" />
<line x1="60" y1="145" x2="60" y2="142" style=" fill: none; stroke: #000000; stroke-width:0.5;" />
<line x1="71.1111" y1="610" x2="71.1111" y2="613" style=" fill: none; stroke: #000000; stroke-width:0.5;" />
<line x1="71.1111" y1="145" x2="71.1111" y2="142" style=" fill: none; stroke: #000000; stroke-width:0.5;" />
<line x1="82.2222" y1="610" x2="82.2222" y2="613" style=" fill: none; stroke: #000000; stroke-width:0.5;" />
<line x1="82.2222" y1="145" x2="82.2222" y2="142" style=" fill: none; stroke: #000000; stroke-width:0.5;" />
<line x1="93.3333" y1="610" x2="93.3333" y2="613" style=" fill: none; stroke: #000000; stroke-width:0.5;" />
<line x1="93.3333" y1="145" x2="93.3333" y2="142" style=" fill: none; stroke: #000000; stroke-width:0.5;" />
<line x1="104.444" y1="610" x2="104.444" y2="613" style=" fill: none; stroke: #000000; stroke-width:0.5;" />
<line x1="104.444" y1="145" x2="104.444" y2="142" style=" fill: none; stroke: #000000; stroke-width:0.5;" />
<line x1="115.556" y1="610" x2="115.556" y2="613" style=" fill: none; stroke: #000000; stroke-width:0.5;" />
<line x1="115.556" y1="145" x2="115.556" y2="142" style=" fill: none; stroke: #000000; stroke-width:0.5;" />
<line x1="126.667" y1="610" x2="126.667" y2="613" style=" fill: none; stroke: #000000; stroke-width:0.5;" />
<line x1="126.667" y1="145" x2="126.667" y2="142" style=" fill: none; stroke: #000000; stroke-width:0.5;" />
<line x1="137.778" y1="610" x2="137.778" y2="613" style=" fill: none; stroke: #000000; stroke-width:0.5;" />
<line x1="137.778" y1="145" x2="137.778" y2="142" style=" fill: none; stroke: #000000; stroke-width:0.5;" />
<line x1="148.889" y1="610" x2="148.889" y2="613" style=" fill: none; stroke: #000000; stroke-width:0.5;" />
<line x1="148.889" y1="145" x2="148.889" y2="142" style=" fill: none; stroke: #000000; stroke-width:0.5;" />
<line x1="160" y1="610" x2="160" y2="613" style=" fill: none; stroke: #000000; stroke-width:0.5;" />
<line x1="160" y1="145" x2="160" y2="142" style=" fill: none; stroke: #000000; stroke-width:0.5;" />
<line x1="171.111" y1="610" x2="171.111" y2="613" style=" fill: none; stroke: #000000; stroke-width:0.5;" />
<line x1="171.111" y1="145" x2="171.111" y2="142" style=" fill: none; stroke: #000000; stroke-width:0.5;" />
<line x1="182.222" y1="610" x2="182.222" y2="613" style=" fill: none; stroke: #000000; stroke-width:0.5;" />
<line x1="182.222" y1="145" x2="182.222" y2="142" style=" fill: none; stroke: #000000; stroke-width:0.5;" />
<line x1="193.333" y1="610" x2="193.333" y2="613" style=" fill: none; stroke: #000000; stroke-width:0.5;" />
<line x1="193.333" y1="145" x2="193.333" y2="142" style=" fill: none; stroke: #000000; stroke-width:0.5;" />
<line x1="204.444" y1="610" x2="204.444" y2="613" style=" fill: none; stroke: #000000; stroke-width:0.5;" />
<line x1="204.444" y1="145" x2="204.444" y2="142" style=" fill: none; stroke: #000000; stroke-width:0.5;" />
<line x1="215.556" y1="610" x2="215.556" y2="613" style=" fill: none; stroke: #000000; stroke-width:0.5;" />
<line x1="215.556" y1="145" x2="215.556" y2="142" style=" fill: none; stroke: #000000; stroke-width:0.5;" />
<line x1="226.667" y1="610" x2="226.667" y2="613" style=" fill: none; stroke: #000000; stroke-width:0.5;" />
<line x1="226.667" y1="145" x2="226.667" y2="142" style=" fill: none; stroke: #000000; stroke-width:0.5;" />
<line x1="237.778" y1="610" x2="237.778" y2="613" style=" fill: none; stroke: #000000; stroke-width:0.5;" />
<line x1="237.778" y1="145" x2="237.778" y2="142" style=" fill: none; stroke: #000000; stroke-width:0.5;" />
<line x1="248.889" y1="610" x2="248.889" y2="613" style=" fill: none; stroke: #000000; stroke-width:0.5;" />
<line x1="248.889" y1="145" x2="248.889" y2="142" style=" fill: none; stroke: #000000; stroke-width:0.5;" />
<line x1="260" y1="610" x2="260" y2="613" style=" fill: none; stroke: #000000; stroke-width:0.5;" />
<line x1="260" y1="145" x2="260" y2="142" style=" fill: none; stroke: #000000; stroke-width:0.5;" />
<line x1="271.111" y1="610" x2="271.111" y2="613" style=" fill: none; stroke: #000000; stroke-width:0.5;" />
<line x1="271.111" y1="145" x2="271.111" y2="142" style=" fill: none; stroke: #000000; stroke-width:0.5;" />
<line x1="282.222" y1="610" x2="282.222" y2="613" style=" fill: none; stroke: #000000; stroke-width:0.5;" />
<line x1="282.222" y1="145" x2="282.222" y2="142" style=" fill: none; stroke: #000000; stroke-width:0.5;" />
<line x1="293.333" y1="610" x2="293.333" y2="613" style=" fill: none; stroke: #000000; stroke-width:0.5;" />
<line x1="293.333" y1="145" x2="293.333" y2="142" style=" fill: none; stroke: #000000; stroke-width:0.5;" />
<line x1="304.444" y1="610" x2="304.444" y2="613" style=" fill: none; stroke: #000000; stroke-width:0.5;" />
<line x1="304.444" y1="145" x2="304.444" y2="142" style=" fill: none; stroke: #000000; stroke-width:0.5;" />
<line x1="315.556" y1="610" x2="315.556" y2="613" style=" fill: none; stroke: #000000; stroke-width:0.5;" />
<line x1="315.556" y1="145" x2="315.556" y2="142" style=" fill: none; stroke: #000000; stroke-width:0.5;" />
<line x1="326.667" y1="610" x2="326.667" y2="613" style=" fill: none; stroke: #000000; stroke-width:0.5;" />
<line x1="326.667" y1="145" x2="326.667" y2="142" style=" fill: none; stroke: #000000; stroke-width:0.5;" />
<line x1="337.778" y1="610" x2="337.778" y2="613" style=" fill: none; stroke: #000000; stroke-width:0.5;" />
<line x1="337.778" y1="145" x2="337.778" y2="142" style=" fill: none; stroke: #000000; stroke-width:0.5;" />
<line x1="348.889" y1="610" x2="348.889" y2="613" style=" fill: none; stroke: #000000; stroke-width:0.5;" />
<line x1="348.889" y1="145" x2="348.889" y2="142" style=" fill: none; stroke: #000000; stroke-width:0.5;" />
<line x1="360" y1="610" x2="360" y2="613" style=" fill: none; stroke: #000000; stroke-width:0.5;" />
<line x1="360" y1="145" x2="360" y2="142" style=" fill: none; stroke: #000000; stroke-width:0.5;" />
<line x1="371.111" y1="610" x2="371.111" y2="613" style=" fill: none; stroke: #000000; stroke-width:0.5;" />
<line x1="371.111" y1="145" x2="371.111" y2="142" style=" fill: none; stroke: #000000; stroke-width:0.5;" />
<line x1="382.222" y1="610" x2="382.222" y2="613" style=" fill: none; stroke: #000000; stroke-width:0.5;" />
<line x1="382.222" y1="145" x2="382.222" y2="142" style=" fill: none; stroke: #000000; stroke-width:0.5;" />
<line x1="393.333" y1="610" x2="393.333" y2="613" style=" fill: none; stroke: #000000; stroke-width:0.5;" />
<line x1="393.333" y1="145" x2="393.333" y2="142" style=" fill: none; stroke: #000000; stroke-width:0.5;" />
<line x1="404.444" y1="610" x2="404.444" y2="613" style=" fill: none; stroke: #000000; stroke-width:0.5;" />
<line x1="404.444" y1="145" x2="404.444" y2="142" style=" fill: none; stroke: #000000; stroke-width:0.5;" />
<line x1="415.556" y1="610" x2="415.556" y2="613" style=" fill: none; stroke: #000000; stroke-width:0.5;" />
<line x1="415.556" y1="145" x2="415.556" y2="142" style=" fill: none; stroke: #000000; stroke-width:0.5;" />
<line x1="426.667" y1="610" x2="426.667" y2="613" style=" fill: none; stroke: #000000; stroke-width:0.5;" />
<line x1="426.667" y1="145" x2="426.667" y2="142" style=" fill: none; stroke: #000000; stroke-width:0.5;" />
<line x1="437.778" y1="610" x2="437.778" y2="613" style=" fill: none; stroke: #000000; stroke-width:0.5;" />
<line x1="437.778" y1="145" x2="437.778" y2="142" style=" fill: none; stroke: #000000; stroke-width:0.5;" />
<line x1="448.889" y1="610" x2="448.889" y2="613" style=" fill: none; stroke: #000000; stroke-width:0.5;" />
<line x1="448.889" y1="145" x2="448.889" y2="142" style=" fill: none; stroke: #000000; stroke-width:0.5;" />
<line x1="460" y1="610" x2="460" y2="613" style=" fill: none; stroke: #000000; stroke-width:0.5;" />
<line x1="460" y1="145" x2="460" y2="142" style=" fill: none; stroke: #000000; stroke-width:0.5;" />
<line x1="60" y1="610" x2="57" y2="610" style=" fill: none; stroke: #000000; stroke-width:0.5;" />
<line x1="460" y1="610" x2="463" y2="610" style=" fill: none; stroke: #000000; stroke-width:0.5;" />
<line x1="60" y1="563.569" x2="57" y2="563.569" style=" fill: none; stroke: #000000; stroke-width:0.5;" />
<line x1="460" y1="563.569" x2="463" y2="563.569" style=" fill: none; stroke: #000000; stroke-width:0.5;" />
<line x1="60" y1="517.138" x2="57" y2="517.138" style=" fill: none; stroke: #000000; stroke-width:0.5;" />
<line x1="460" y1="517.138" x2="463" y2="517.138" style=" fill: none; stroke: #000000; stroke-width:0.5;" />
<line x1="60" y1="470.707" x2="57" y2="470.707" style=" fill: none; stroke: #000000; stroke-width:0.5;" />
<line x1="460" y1="470.707" x2="463" y2="470.707" style=" fill: none; stroke: #000000; stroke-width:0.5;" />
<line x1="60" y1="424.276" x2="57" y2="424.276" style=" fill: none; stroke: #000000; stroke-width:0.5;" />
<line x1="460" y1="424.276" x2="463" y2="424.276" style=" fill: none; stroke: #000000; stroke-width:0.5;" />
<line x1="60" y1="377.844" x2="57" y2="377.844" style=" fill: none; stroke: #000000; stroke-width:0.5;" />
<line x1="460" y1="377.844" x2="463" y2="377.844" style=" fill: none; stroke: #000000; stroke-width:0.5;" />
<line x1="60" y1="331.413" x2="57" y2="331.413" style=" fill: none; stroke: #000000; stroke-width:0.5;" />
<line x1="460" y1="331.413" x2="463" y2="331.413" style=" fill: none; stroke: #000000; stroke-width:0.5;" />
<line x1="60" y1="284.982" x2="57" y2="284.982" style=" fill: none; stroke: #000000; stroke-width:0.5;" />
<line x1="460" y1="284.982" x2="463" y2="284.982" style=" fill: none; stroke: #000000; stroke-width:0.5;" />
<line x1="60" y1="238.551" x2="57" y2="238.551" style=" fill: none; stroke: #000000; stroke-width:0.5;" />
<line x1="460" y1="238.551" x2="463" y2="238.551" style=" fill: none; stroke: #000000; stroke-width:0.5;" />
<line x1="60" y1="192.12" x2="57" y2="192.12" style=" fill: none; stroke: #000000; stroke-width:0.5;" />
<line x1="460" y1="192.12" x2="463" y2="192.12" style=" fill: none; stroke: #000000; stroke-width:0.5;" />
<line x1="60" y1="145.689" x2="57" y2="145.689" style=" fill: none; stroke: #000000; stroke-width:0.5;" />
<line x1="460" y1="145.689" x2="463" y2="145.689" style=" fill: none; stroke: #000000; stroke-width:0.5;" />
<text x="39" y="613.5" style=" stroke:none; fill: #000000; font-family:sans-serif; font-size:10;">
180</text>
<text x="39" y="567.069" style=" stroke:none; fill: #000000; font-family:sans-serif; font-size:10;">
517</text>
<text x="36" y="520.638" style=" stroke:none; fill: #000000; font-family:sans-serif; font-size:10;">
854</text>
<text x="38" y="474.207" style=" stroke:none; fill: #000000; font-family:sans-serif; font-size:10;">
1191</text>
<text x="32" y="427.776" style=" stroke:none; fill: #000000; font-family:sans-serif; font-size:10;">
1528</text>
<text x="32" y="381.344" style=" stroke:none; fill: #000000; font-family:sans-serif; font-size:10;">
1865</text>
<text x="29" y="334.913" style=" stroke:none; fill: #000000; font-family:sans-serif; font-size:10;">
2202</text>
<text x="29" y="288.482" style=" stroke:none; fill: #000000; font-family:sans-serif; font-size:10;">
2539</text>
<text x="29" y="242.051" style=" stroke:none; fill: #000000; font-family:sans-serif; font-size:10;">
2876</text>
<text x="32" y="195.62" style=" stroke:none; fill: #000000; font-family:sans-serif; font-size:10;">
3213</text>
<text x="29" y="149.189" style=" stroke:none; fill: #000000; font-family:sans-serif; font-size:10;">
3550</text>
<text x="20" y="409" style=" stroke:none; fill: #000000; font-family:sans-serif; font-size:10;" transform="matrix(0 -1 1 0 -389 429)">
Range (km)</text>
<image x="470" y="145" width="1" height="256" xlink:href="example1-2.png" transform="matrix(8 0 0 1.81641 -3290 -118.379)" />
<rect x="470" y="145" width="8" height="465" style="stroke: #000000; stroke-width:0.5; fill:none;" />
<line x1="470" y1="610" x2="478" y2="610" style=" fill: none; stroke: #000000; stroke-width:0.5;" />
<line x1="470" y1="563.5" x2="478" y2="563.5" style=" fill: none; stroke: #000000; stroke-width:0.5;" />
<line x1="470" y1="517" x2="478" y2="517" style=" fill: none; stroke: #000000; stroke-width:0.5;" />
<line x1="470" y1="470.5" x2="478" y2="470.5" style=" fill: none; stroke: #000000; stroke-width:0.5;" />
<line x1="470" y1="424" x2="478" y2="424" style=" fill: none; stroke: #000000; stroke-width:0.5;" />
<line x1="470" y1="377.5" x2="478" y2="377.5" style=" fill: none; stroke: #000000; stroke-width:0.5;" />
<line x1="470" y1="331" x2="478" y2="331" style=" fill: none; stroke: #000000; stroke-width:0.5;" />
<line x1="470" y1="284.5" x2="478" y2="284.5" style=" fill: none; stroke: #000000; stroke-width:0.5;" />
<line x1="470" y1="238" x2="478" y2="238" style=" fill: none; stroke: #000000; stroke-width:0.5;" />
<line x1="470" y1="191.5" x2="478" y2="191.5" style=" fill: none; stroke: #000000; stroke-width:0.5;" />
<line x1="470" y1="145" x2="478" y2="145" style=" fill: none; stroke: #000000; stroke-width:0.5;" />
<text x="483" y="613.5" style=" stroke:none; fill: #000000; font-family:sans-serif; font-size:10;">
-2000 m/s</text>
<text x="483" y="381" style=" stroke:none; fill: #000000; font-family:sans-serif; font-size:10;">
0 m/s</text>
<text x="483" y="148.5" style=" stroke:none; fill: #000000; font-family:sans-serif; font-size:10;">
2000 m/s</text>
<text x="238" y="138" style=" stroke:none; fill: #000000; font-family:sans-serif; font-size:10;">
Velocity</text>
<text x="46.5" y="625" style=" stroke:none; fill: #000000; font-family:sans-serif; font-size:10;">
00:01</text>
<text x="114.667" y="625" style=" stroke:none; fill: #000000; font-family:sans-serif; font-size:10;">
01:01</text>
<text x="179.833" y="625" style=" stroke:none; fill: #000000; font-family:sans-serif; font-size:10;">
02:01</text>
<text x="246.5" y="625" style=" stroke:none; fill: #000000; font-family:sans-serif; font-size:10;">
03:01</text>
<text x="313.167" y="625" style=" stroke:none; fill: #000000; font-family:sans-serif; font-size:10;">
04:01</text>
<text x="379.833" y="625" style=" stroke:none; fill: #000000; font-family:sans-serif; font-size:10;">
05:01</text>
<text x="446.5" y="625" style=" stroke:none; fill: #000000; font-family:sans-serif; font-size:10;">
06:01</text>
<text x="238" y="637" style=" stroke:none; fill: #000000; font-family:sans-serif; font-size:10;">
UT Time</text>
<image x="60" y="88" width="400" height="1" xlink:href="example1-3.png" transform="matrix(1 0 0 12 0 -968)" />
<image x="60" y="108" width="400" height="1" xlink:href="example1-4.png" transform="matrix(1 0 0 12 0 -1188)" />
<rect x="60" y="88" width="400" height="12" style="stroke: #000000; stroke-width:0.5; fill:none;" />
<rect x="60" y="108" width="400" height="12" style="stroke: #000000; stroke-width:0.5; fill:none;" />
<text x="2" y="96.5" style=" stroke:none; fill: #000000; font-family:sans-serif; font-size:10;">
Frequency</text>
<text x="463" y="97.5" style=" stroke:none; fill: #000000; font-family:sans-serif; font-size:10;">
Revision:0.0</text>
<text x="9" y="117.5" style=" stroke:none; fill: #000000; font-family:sans-serif; font-size:10;">
Noise dB</text>
<image x="280" y="68" width="10" height="1" xlink:href="example1-5.png" transform="matrix(16 0 0 10 -4200 -612)" />
<rect x="280" y="68" width="160" height="10" style="stroke: #000000; stroke-width:0.5; fill:none;" />
<line x1="280" y1="68" x2="280" y2="78" style=" fill: none; stroke: #000000; stroke-width:0.5;" />
<line x1="296" y1="68" x2="296" y2="78" style=" fill: none; stroke: #000000; stroke-width:0.5;" />
<line x1="312" y1="68" x2="312" y2="78" style=" fill: none; stroke: #000000; stroke-width:0.5;" />
<line x1="328" y1="68" x2="328" y2="78" style=" fill: none; stroke: #000000; stroke-width:0.5;" />
<line x1="344" y1="68" x2="344" y2="78" style=" fill: none; stroke: #000000; stroke-width:0.5;" />
<line x1="360" y1="68" x2="360" y2="78" style=" fill: none; stroke: #000000; stroke-width:0.5;" />
<line x1="376" y1="68" x2="376" y2="78" style=" fill: none; stroke: #000000; stroke-width:0.5;" />
<line x1="392" y1="68" x2="392" y2="78" style=" fill: none; stroke: #000000; stroke-width:0.5;" />
<line x1="408" y1="68" x2="408" y2="78" style=" fill: none; stroke: #000000; stroke-width:0.5;" />
<line x1="424" y1="68" x2="424" y2="78" style=" fill: none; stroke: #000000; stroke-width:0.5;" />
<line x1="440" y1="68" x2="440" y2="78" style=" fill: none; stroke: #000000; stroke-width:0.5;" />
<text x="277" y="63" style=" stroke:none; fill: #000000; font-family:sans-serif; font-size:10;">
0</text>
<text x="293" y="63" style=" stroke:none; fill: #000000; font-family:sans-serif; font-size:10;">
3</text>
<text x="309" y="63" style=" stroke:none; fill: #000000; font-family:sans-serif; font-size:10;">
6</text>
<text x="325" y="63" style=" stroke:none; fill: #000000; font-family:sans-serif; font-size:10;">
9</text>
<text x="339" y="63" style=" stroke:none; fill: #000000; font-family:sans-serif; font-size:10;">
12</text>
<text x="355" y="63" style=" stroke:none; fill: #000000; font-family:sans-serif; font-size:10;">
15</text>
<text x="371" y="63" style=" stroke:none; fill: #000000; font-family:sans-serif; font-size:10;">
18</text>
<text x="387" y="63" style=" stroke:none; fill: #000000; font-family:sans-serif; font-size:10;">
21</text>
<text x="401.5" y="63" style=" stroke:none; fill: #000000; font-family:sans-serif; font-size:10;">
24</text>
<text x="417.5" y="63" style=" stroke:none; fill: #000000; font-family:sans-serif; font-size:10;">
27</text>
<text x="433.5" y="63" style=" stroke:none; fill: #000000; font-family:sans-serif; font-size:10;">
30</text>
<text x="246" y="76.5" style=" stroke:none; fill: #000000; font-family:sans-serif; font-size:10;">
Noise</text>
<image x="80" y="68" width="10" height="1" xlink:href="example1-5.png" transform="matrix(16 0 0 10 -1200 -612)" />
<rect x="80" y="68" width="160" height="10" style="stroke: #000000; stroke-width:0.5; fill:none;" />
<line x1="80" y1="68" x2="80" y2="78" style=" fill: none; stroke: #000000; stroke-width:0.5;" />
<line x1="112" y1="68" x2="112" y2="78" style=" fill: none; stroke: #000000; stroke-width:0.5;" />
<line x1="144" y1="68" x2="144" y2="78" style=" fill: none; stroke: #000000; stroke-width:0.5;" />
<line x1="176" y1="68" x2="176" y2="78" style=" fill: none; stroke: #000000; stroke-width:0.5;" />
<line x1="208" y1="68" x2="208" y2="78" style=" fill: none; stroke: #000000; stroke-width:0.5;" />
<text x="77" y="63" style=" stroke:none; fill: #000000; font-family:sans-serif; font-size:10;">
9</text>
<text x="108.5" y="63" style=" stroke:none; fill: #000000; font-family:sans-serif; font-size:10;">
11</text>
<text x="139" y="63" style=" stroke:none; fill: #000000; font-family:sans-serif; font-size:10;">
13</text>
<text x="171" y="63" style=" stroke:none; fill: #000000; font-family:sans-serif; font-size:10;">
15</text>
<text x="203" y="63" style=" stroke:none; fill: #000000; font-family:sans-serif; font-size:10;">
17</text>
<text x="20" y="75.5" style=" stroke:none; fill: #000000; font-family:sans-serif; font-size:10;">
Frequency</text>
<text x="2" y="16.5" style=" stroke:none; fill: #000000; font-family:sans-serif; font-size:12;">
Station:Kodiak (kod)</text>
<text x="2" y="33" style=" stroke:none; fill: #000000; font-family:sans-serif; font-size:12;">
Operated by:University of Alaska,Fairbanks</text>
<text x="360" y="16.5" style=" stroke:none; fill: #000000; font-family:sans-serif; font-size:12;">
January, 20 2004 (20040120)</text>
<text x="396" y="33" style=" stroke:none; fill: #000000; font-family:sans-serif; font-size:12;">
Program IDs:9050,-9060</text>
<text x="244.5" y="16.5" style=" stroke:none; fill: #000000; font-family:sans-serif; font-size:12;">
Beam 05</text>
</svg>
