<?xml version="1.0" standalone="no"?>
<!DOCTYPE svg PUBLIC "-//W3C//DTD SVG 1.1//EN"
"http://www.w3.org/Graphics/SVG/1.1/DTD/svg11.dtd">
<svg viewBox="0 0 540 640" version="1.1"
xmlns="http://www.w3.org/2000/svg" xmlns:xlink="http://www.w3.org/1999/xlink">
<rect x="0" y="0" width="540" height="640" style="stroke:none; fill:#ffffff;" />
<image x="60" y="145" width="400" height="138" xlink:href="example2-1.png" transform="matrix(1 0 0 1.00242 0 -0.350893)" />
<image x="60" y="308.333" width="400" height="138" xlink:href="example2-2.png" transform="matrix(1 0 0 1.00242 0 -0.74615)" />
<image x="60" y="471.667" width="400" height="138" xlink:href="example2-3.png" transform="matrix(1 0 0 1.00242 0 -1.14141)" />
<rect x="60" y="145" width="400" height="138.333" style="stroke: #000000; stroke-width:0.5; fill:none;" />
<line x1="60" y1="145" x2="60" y2="283.333" style=" fill: none; stroke: #000000; stroke-width:0.5;" />
<line x1="60" y1="283.333" x2="60" y2="286.333" style=" fill: none; stroke: #000000; stroke-width:0.5;" />
<line x1="60" y1="145" x2="60" y2="142" style=" fill: none; stroke: #000000; stroke-width:0.5;" />
<line x1="193.333" y1="145" x2="193.333" y2="283.333" style=" fill: none; stroke: #000000; stroke-width:0.5;" />
<line x1="193.333" y1="283.333" x2="193.333" y2="286.333" style=" fill: none; stroke: #000000; stroke-width:0.5;" />
<line x1="193.333" y1="145" x2="193.333" y2="142" style=" fill: none; stroke: #000000; stroke-width:0.5;" />
<line x1="326.667" y1="145" x2="326.667" y2="283.333" style=" fill: none; stroke: #000000; stroke-width:0.5;" />
<line x1="326.667" y1="283.333" x2="326.667" y2="286.333" style=" fill: none; stroke: #000000; stroke-width:0.5;" />
<line x1="326.667" y1="145" x2="326.667" y2="142" style=" fill: none; stroke: #000000; stroke-width:0.5;" />
<line x1="460" y1="145" x2="460" y2="283.333" style=" fill: none; stroke: #000000; stroke-width:0.5;" />
<line x1="460" y1="283.333" x2="460" y2="286.333" style=" fill: none; stroke: #000000; stroke-width:0.5;" />
<line x1="460" y1="145" x2="460" y2="142" style=" fill: none; stroke: #000000; stroke-width:0.5;" />
<line x1="60" y1="283.333" x2="60" y2="286.333" style=" fill: none; stroke: #000000; stroke-width:0.5;" />
<line x1="60" y1="145" x2="60" y2="142" style=" fill: none; stroke: #000000; stroke-width:0.5;" />
<line x1="82.2222" y1="283.333" x2="82.2222" y2="286.333" style=" fill: none; stroke: #000000; stroke-width:0.5;" />
<line x1="82.2222" y1="145" x2="82.2222" y2="142" style=" fill: none; stroke: #000000; stroke-width:0.5;" />
<line x1="104.444" y1="283.333" x2="104.444" y2="286.333" style=" fill: none; stroke: #000000; stroke-width:0.5;" />
<line x1="104.444" y1="145" x2="104.444" y2="142" style=" fill: none; stroke: #000000; stroke-width:0.5;" />
<line x1="126.667" y1="283.333" x2="126.667" y2="286.333" style=" fill: none; stroke: #000000; stroke-width:0.5;" />
<line x1="126.667" y1="145" x2="126.667" y2="142" style=" fill: none; stroke: #000000; stroke-width:0.5;" />
<line x1="148.889" y1="283.333" x2="148.889" y2="286.333" style=" fill: none; stroke: #000000; stroke-width:0.5;" />
<line x1="148.889" y1="145" x2="148.889" y2="142" style=" fill: none; stroke: #000000; stroke-width:0.5;" />
<line x1="171.111" y1="283.333" x2="171.111" y2="286.333" style=" fill: none; stroke: #000000; stroke-width:0.5;" />
<line x1="171.111" y1="145" x2="171.111" y2="142" style=" fill: none; stroke: #000000; stroke-width:0.5;" />
<line x1="193.333" y1="283.333" x2="193.333" y2="286.333" style=" fill: none; stroke: #000000; stroke-width:0.5;" />
<line x1="193.333" y1="145" x2="193.333" y2="142" style=" fill: none; stroke: #000000; stroke-width:0.5;" />
<line x1="215.556" y1="283.333" x2="215.556" y2="286.333" style=" fill: none; stroke: #000000; stroke-width:0.5;" />
<line x1="215.556" y1="145" x2="215.556" y2="142" style=" fill: none; stroke: #000000; stroke-width:0.5;" />
<line x1="237.778" y1="283.333" x2="237.778" y2="286.333" style=" fill: none; stroke: #000000; stroke-width:0.5;" />
<line x1="237.778" y1="145" x2="237.778" y2="142" style=" fill: none; stroke: #000000; stroke-width:0.5;" />
<line x1="260" y1="283.333" x2="260" y2="286.333" style=" fill: none; stroke: #000000; stroke-width:0.5;" />
<line x1="260" y1="145" x2="260" y2="142" style=" fill: none; stroke: #000000; stroke-width:0.5;" />
<line x1="282.222" y1="283.333" x2="282.222" y2="286.333" style=" fill: none; stroke: #000000; stroke-width:0.5;" />
<line x1="282.222" y1="145" x2="282.222" y2="142" style=" fill: none; stroke: #000000; stroke-width:0.5;" />
<line x1="304.444" y1="283.333" x2="304.444" y2="286.333" style=" fill: none; stroke: #000000; stroke-width:0.5;" />
<line x1="304.444" y1="145" x2="304.444" y2="142" style=" fill: none; stroke: #000000; stroke-width:0.5;" />
<line x1="326.667" y1="283.333" x2="326.667" y2="286.333" style=" fill: none; stroke: #000000; stroke-width:0.5;" />
<line x1="326.667" y1="145" x2="326.667" y2="142" style=" fill: none; stroke: #000000; stroke-width:0.5;" />
<line x1="348.889" y1="283.333" x2="348.889" y2="286.333" style=" fill: none; stroke: #000000; stroke-width:0.5;" />
<line x1="348.889" y1="145" x2="348.889" y2="142" style=" fill: none; stroke: #000000; stroke-width:0.5;" />
<line x1="371.111" y1="283.333" x2="371.111" y2="286.333" style=" fill: none; stroke: #000000; stroke-width:0.5;" />
<line x1="371.111" y1="145" x2="371.111" y2="142" style=" fill: none; stroke: #000000; stroke-width:0.5;" />
<line x1="393.333" y1="283.333" x2="393.333" y2="286.333" style=" fill: none; stroke: #000000; stroke-width:0.5;" />
<line x1="393.333" y1="145" x2="393.333" y2="142" style=" fill: none; stroke: #000000; stroke-width:0.5;" />
<line x1="415.556" y1="283.333" x2="415.556" y2="286.333" style=" fill: none; stroke: #000000; stroke-width:0.5;" />
<line x1="415.556" y1="145" x2="415.556" y2="142" style=" fill: none; stroke: #000000; stroke-width:0.5;" />
<line x1="437.778" y1="283.333" x2="437.778" y2="286.333" style=" fill: none; stroke: #000000; stroke-width:0.5;" />
<line x1="437.778" y1="145" x2="437.778" y2="142" style=" fill: none; stroke: #000000; stroke-width:0.5;" />
<line x1="460" y1="283.333" x2="460" y2="286.333" style=" fill: none; stroke: #000000; stroke-width:0.5;" />
<line x1="460" y1="145" x2="460" y2="142" style=" fill: none; stroke: #000000; stroke-width:0.5;" />
<line x1="60" y1="283.333" x2="57" y2="283.333" style=" fill: none; stroke: #000000; stroke-width:0.5;" />
<line x1="460" y1="283.333" x2="463" y2="283.333" style=" fill: none; stroke: #000000; stroke-width:0.5;" />
<line x1="60" y1="255.667" x2="57" y2="255.667" style=" fill: none; stroke: #000000; stroke-width:0.5;" />
<line x1="460" y1="255.667" x2="463" y2="255.667" style=" fill: none; stroke: #000000; stroke-width:0.5;" />
<line x1="60" y1="228" x2="57" y2="228" style=" fill: none; stroke: #000000; stroke-width:0.5;" />
<line x1="460" y1="228" x2="463" y2="228" style=" fill: none; stroke: #000000; stroke-width:0.5;" />
<line x1="60" y1="200.333" x2="57" y2="200.333" style=" fill: none; stroke: #000000; stroke-width:0.5;" />
<line x1="460" y1="200.333" x2="463" y2="200.333" style=" fill: none; stroke: #000000; stroke-width:0.5;" />
<line x1="60" y1="172.667" x2="57" y2="172.667" style=" fill: none; stroke: #000000; stroke-width:0.5;" />
<line x1="460" y1="172.667" x2="463" y2="172.667" style=" fill: none; stroke: #000000; stroke-width:0.5;" />
<line x1="60" y1="145" x2="57" y2="145" style=" fill: none; stroke: #000000; stroke-width:0.5;" />
<line x1="460" y1="145" x2="463" y2="145" style=" fill: none; stroke: #000000; stroke-width:0.5;" />
<text x="43" y="286.833" style=" stroke:none; fill: #000000; font-family:sans-serif; font-size:10;">
35</text>
<text x="43" y="203.833" style=" stroke:none; fill: #000000; font-family:sans-serif; font-size:10;">
50</text>
<text x="30" y="246.167" style=" stroke:none; fill: #000000; font-family:sans-serif; font-size:10;" transform="matrix(0 -1 1 0 -216.167 276.167)">
Range Gate</text>
<image x="470" y="145.167" width="1" height="256" xlink:href="example2-4.png" transform="matrix(8 0 0 0.539062 -3290 66.913)" />
<rect x="470" y="145.167" width="8" height="138" style="stroke: #000000; stroke-width:0.5; fill:none;" />
<line x1="470" y1="283.167" x2="478" y2="283.167" style=" fill: none; stroke: #000000; stroke-width:0.5;" />
<line x1="470" y1="269.367" x2="478" y2="269.367" style=" fill: none; stroke: #000000; stroke-width:0.5;" />
<line x1="470" y1="255.567" x2="478" y2="255.567" style=" fill: none; stroke: #000000; stroke-width:0.5;" />
<line x1="470" y1="241.767" x2="478" y2="241.767" style=" fill: none; stroke: #000000; stroke-width:0.5;" />
<line x1="470" y1="227.967" x2="478" y2="227.967" style=" fill: none; stroke: #000000; stroke-width:0.5;" />
<line x1="470" y1="214.167" x2="478" y2="214.167" style=" fill: none; stroke: #000000; stroke-width:0.5;" />
<line x1="470" y1="200.367" x2="478" y2="200.367" style=" fill: none; stroke: #000000; stroke-width:0.5;" />
<line x1="470" y1="186.567" x2="478" y2="186.567" style=" fill: none; stroke: #000000; stroke-width:0.5;" />
<line x1="470" y1="172.767" x2="478" y2="172.767" style=" fill: none; stroke: #000000; stroke-width:0.5;" />
<line x1="470" y1="158.967" x2="478" y2="158.967" style=" fill: none; stroke: #000000; stroke-width:0.5;" />
<line x1="470" y1="145.167" x2="478" y2="145.167" style=" fill: none; stroke: #000000; stroke-width:0.5;" />
<text x="483" y="286.667" style=" stroke:none; fill: #000000; font-family:sans-serif; font-size:10;">
0 dB</text>
<text x="483" y="148.667" style=" stroke:none; fill: #000000; font-family:sans-serif; font-size:10;">
30 dB</text>
<text x="243.5" y="140" style=" stroke:none; fill: #000000; font-family:sans-serif; font-size:10;">
Power</text>
<rect x="60" y="308.333" width="400" height="138.333" style="stroke: #000000; stroke-width:0.5; fill:none;" />
<line x1="60" y1="308.333" x2="60" y2="446.667" style=" fill: none; stroke: #000000; stroke-width:0.5;" />
<line x1="60" y1="446.667" x2="60" y2="449.667" style=" fill: none; stroke: #000000; stroke-width:0.5;" />
<line x1="60" y1="308.333" x2="60" y2="305.333" style=" fill: none; stroke: #000000; stroke-width:0.5;" />
<line x1="193.333" y1="308.333" x2="193.333" y2="446.667" style=" fill: none; stroke: #000000; stroke-width:0.5;" />
<line x1="193.333" y1="446.667" x2="193.333" y2="449.667" style=" fill: none; stroke: #000000; stroke-width:0.5;" />
<line x1="193.333" y1="308.333" x2="193.333" y2="305.333" style=" fill: none; stroke: #000000; stroke-width:0.5;" />
<line x1="326.667" y1="308.333" x2="326.667" y2="446.667" style=" fill: none; stroke: #000000; stroke-width:0.5;" />
<line x1="326.667" y1="446.667" x2="326.667" y2="449.667" style=" fill: none; stroke: #000000; stroke-width:0.5;" />
<line x1="326.667" y1="308.333" x2="326.667" y2="305.333" style=" fill: none; stroke: #000000; stroke-width:0.5;" />
<line x1="460" y1="308.333" x2="460" y2="446.667" style=" fill: none; stroke: #000000; stroke-width:0.5;" />
<line x1="460" y1="446.667" x2="460" y2="449.667" style=" fill: none; stroke: #000000; stroke-width:0.5;" />
<line x1="460" y1="308.333" x2="460" y2="305.333" style=" fill: none; stroke: #000000; stroke-width:0.5;" />
<line x1="60" y1="446.667" x2="60" y2="449.667" style=" fill: none; stroke: #000000; stroke-width:0.5;" />
<line x1="60" y1="308.333" x2="60" y2="305.333" style=" fill: none; stroke: #000000; stroke-width:0.5;" />
<line x1="82.2222" y1="446.667" x2="82.2222" y2="449.667" style=" fill: none; stroke: #000000; stroke-width:0.5;" />
<line x1="82.2222" y1="308.333" x2="82.2222" y2="305.333" style=" fill: none; stroke: #000000; stroke-width:0.5;" />
<line x1="104.444" y1="446.667" x2="104.444" y2="449.667" style=" fill: none; stroke: #000000; stroke-width:0.5;" />
<line x1="104.444" y1="308.333" x2="104.444" y2="305.333" style=" fill: none; stroke: #000000; stroke-width:0.5;" />
<line x1="126.667" y1="446.667" x2="126.667" y2="449.667" style=" fill: none; stroke: #000000; stroke-width:0.5;" />
<line x1="126.667" y1="308.333" x2="126.667" y2="305.333" style=" fill: none; stroke: #000000; stroke-width:0.5;" />
<line x1="148.889" y1="446.667" x2="148.889" y2="449.667" style=" fill: none; stroke: #000000; stroke-width:0.5;" />
<line x1="148.889" y1="308.333" x2="148.889" y2="305.333" style=" fill: none; stroke: #000000; stroke-width:0.5;" />
<line x1="171.111" y1="446.667" x2="171.111" y2="449.667" style=" fill: none; stroke: #000000; stroke-width:0.5;" />
<line x1="171.111" y1="308.333" x2="171.111" y2="305.333" style=" fill: none; stroke: #000000; stroke-width:0.5;" />
<line x1="193.333" y1="446.667" x2="193.333" y2="449.667" style=" fill: none; stroke: #000000; stroke-width:0.5;" />
<line x1="193.333" y1="308.333" x2="193.333" y2="305.333" style=" fill: none; stroke: #000000; stroke-width:0.5;" />
<line x1="215.556" y1="446.667" x2="215.556" y2="449.667" style=" fill: none; stroke: #000000; stroke-width:0.5;" />
<line x1="215.556" y1="308.333" x2="215.556" y2="305.333" style=" fill: none; stroke: #000000; stroke-width:0.5;" />
<line x1="237.778" y1="446.667" x2="237.778" y2="449.667" style=" fill: none; stroke: #000000; stroke-width:0.5;" />
<line x1="237.778" y1="308.333" x2="237.778" y2="305.333" style=" fill: none; stroke: #000000; stroke-width:0.5;" />
<line x1="260" y1="446.667" x2="260" y2="449.667" style=" fill: none; stroke: #000000; stroke-width:0.5;" />
<line x1="260" y1="308.333" x2="260" y2="305.333" style=" fill: none; stroke: #000000; stroke-width:0.5;" />
<line x1="282.222" y1="446.667" x2="282.222" y2="449.667" style=" fill: none; stroke: #000000; stroke-width:0.5;" />
<line x1="282.222" y1="308.333" x2="282.222" y2="305.333" style=" fill: none; stroke: #000000; stroke-width:0.5;" />
<line x1="304.444" y1="446.667" x2="304.444" y2="449.667" style=" fill: none; stroke: #000000; stroke-width:0.5;" />
<line x1="304.444" y1="308.333" x2="304.444" y2="305.333" style=" fill: none; stroke: #000000; stroke-width:0.5;" />
<line x1="326.667" y1="446.667" x2="326.667" y2="449.667" style=" fill: none; stroke: #000000; stroke-width:0.5;" />
<line x1="326.667" y1="308.333" x2="326.667" y2="305.333" style=" fill: none; stroke: #000000; stroke-width:0.5;" />
<line x1="348.889" y1="446.667" x2="348.889" y2="449.667" style=" fill: none; stroke: #000000; stroke-width:0.5;" />
<line x1="348.889" y1="308.333" x2="348.889" y2="305.333" style=" fill: none; stroke: #000000; stroke-width:0.5;" />
<line x1="371.111" y1="446.667" x2="371.111" y2="449.667" style=" fill: none; stroke: #000000; stroke-width:0.5;" />
<line x1="371.111" y1="308.333" x2="371.111" y2="305.333" style=" fill: none; stroke: #000000; stroke-width:0.5;" />
<line x1="393.333" y1="446.667" x2="393.333" y2="449.667" style=" fill: none; stroke: #000000; stroke-width:0.5;" />
<line x1="393.333" y1="308.333" x2="393.333" y2="305.333" style=" fill: none; stroke: #000000; stroke-width:0.5;" />
<line x1="415.556" y1="446.667" x2="415.556" y2="449.667" style=" fill: none; stroke: #000000; stroke-width:0.5;" />
<line x1="415.556" y1="308.333" x2="415.556" y2="305.333" style=" fill: none; stroke: #000000; stroke-width:0.5;" />
<line x1="437.778" y1="446.667" x2="437.778" y2="449.667" style=" fill: none; stroke: #000000; stroke-width:0.5;" />
<line x1="437.778" y1="308.333" x2="437.778" y2="305.333" style=" fill: none; stroke: #000000; stroke-width:0.5;" />
<line x1="460" y1="446.667" x2="460" y2="449.667" style=" fill: none; stroke: #000000; stroke-width:0.5;" />
<line x1="460" y1="308.333" x2="460" y2="305.333" style=" fill: none; stroke: #000000; stroke-width:0.5;" />
<line x1="60" y1="446.667" x2="57" y2="446.667" style=" fill: none; stroke: #000000; stroke-width:0.5;" />
<line x1="460" y1="446.667" x2="463" y2="446.667" style=" fill: none; stroke: #000000; stroke-width:0.5;" />
<line x1="60" y1="419" x2="57" y2="419" style=" fill: none; stroke: #000000; stroke-width:0.5;" />
<line x1="460" y1="419" x2="463" y2="419" style=" fill: none; stroke: #000000; stroke-width:0.5;" />
<line x1="60" y1="391.333" x2="57" y2="391.333" style=" fill: none; stroke: #000000; stroke-width:0.5;" />
<line x1="460" y1="391.333" x2="463" y2="391.333" style=" fill: none; stroke: #000000; stroke-width:0.5;" />
<line x1="60" y1="363.667" x2="57" y2="363.667" style=" fill: none; stroke: #000000; stroke-width:0.5;" />
<line x1="460" y1="363.667" x2="463" y2="363.667" style=" fill: none; stroke: #000000; stroke-width:0.5;" />
<line x1="60" y1="336" x2="57" y2="336" style=" fill: none; stroke: #000000; stroke-width:0.5;" />
<line x1="460" y1="336" x2="463" y2="336" style=" fill: none; stroke: #000000; stroke-width:0.5;" />
<line x1="60" y1="308.333" x2="57" y2="308.333" style=" fill: none; stroke: #000000; stroke-width:0.5;" />
<line x1="460" y1="308.333" x2="463" y2="308.333" style=" fill: none; stroke: #000000; stroke-width:0.5;" />
<text x="43" y="450.167" style=" stroke:none; fill: #000000; font-family:sans-serif; font-size:10;">
35</text>
<text x="43" y="367.167" style=" stroke:none; fill: #000000; font-family:sans-serif; font-size:10;">
50</text>
<text x="30" y="409.5" style=" stroke:none; fill: #000000; font-family:sans-serif; font-size:10;" transform="matrix(0 -1 1 0 -379.5 439.5)">
Range Gate</text>
<image x="470" y="308.5" width="1" height="256" xlink:href="example2-5.png" transform="matrix(8 0 0 0.539062 -3290 142.199)" />
<rect x="470" y="308.5" width="8" height="138" style="stroke: #000000; stroke-width:0.5; fill:none;" />
<line x1="470" y1="446.5" x2="478" y2="446.5" style=" fill: none; stroke: #000000; stroke-width:0.5;" />
<line x1="470" y1="432.7" x2="478" y2="432.7" style=" fill: none; stroke: #000000; stroke-width:0.5;" />
<line x1="470" y1="418.9" x2="478" y2="418.9" style=" fill: none; stroke: #000000; stroke-width:0.5;" />
<line x1="470" y1="405.1" x2="478" y2="405.1" style=" fill: none; stroke: #000000; stroke-width:0.5;" />
<line x1="470" y1="391.3" x2="478" y2="391.3" style=" fill: none; stroke: #000000; stroke-width:0.5;" />
<line x1="470" y1="377.5" x2="478" y2="377.5" style=" fill: none; stroke: #000000; stroke-width:0.5;" />
<line x1="470" y1="363.7" x2="478" y2="363.7" style=" fill: none; stroke: #000000; stroke-width:0.5;" />
<line x1="470" y1="349.9" x2="478" y2="349.9" style=" fill: none; stroke: #000000; stroke-width:0.5;" />
<line x1="470" y1="336.1" x2="478" y2="336.1" style=" fill: none; stroke: #000000; stroke-width:0.5;" />
<line x1="470" y1="322.3" x2="478" y2="322.3" style=" fill: none; stroke: #000000; stroke-width:0.5;" />
<line x1="470" y1="308.5" x2="478" y2="308.5" style=" fill: none; stroke: #000000; stroke-width:0.5;" />
<text x="483" y="450" style=" stroke:none; fill: #000000; font-family:sans-serif; font-size:10;">
-2000 m/s</text>
<text x="483" y="381" style=" stroke:none; fill: #000000; font-family:sans-serif; font-size:10;">
0 m/s</text>
<text x="483" y="312" style=" stroke:none; fill: #000000; font-family:sans-serif; font-size:10;">
2000 m/s</text>
<text x="238" y="301.333" style=" stroke:none; fill: #000000; font-family:sans-serif; font-size:10;">
Velocity</text>
<rect x="60" y="471.667" width="400" height="138.333" style="stroke: #000000; stroke-width:0.5; fill:none;" />
<line x1="60" y1="471.667" x2="60" y2="610" style=" fill: none; stroke: #000000; stroke-width:0.5;" />
<line x1="60" y1="610" x2="60" y2="613" style=" fill: none; stroke: #000000; stroke-width:0.5;" />
<line x1="60" y1="471.667" x2="60" y2="468.667" style=" fill: none; stroke: #000000; stroke-width:0.5;" />
<line x1="193.333" y1="471.667" x2="193.333" y2="610" style=" fill: none; stroke: #000000; stroke-width:0.5;" />
<line x1="193.333" y1="610" x2="193.333" y2="613" style=" fill: none; stroke: #000000; stroke-width:0.5;" />
<line x1="193.333" y1="471.667" x2="193.333" y2="468.667" style=" fill: none; stroke: #000000; stroke-width:0.5;" />
<line x1="326.667" y1="471.667" x2="326.667" y2="610" style=" fill: none; stroke: #000000; stroke-width:0.5;" />
<line x1="326.667" y1="610" x2="326.667" y2="613" style=" fill: none; stroke: #000000; stroke-width:0.5;" />
<line x1="326.667" y1="471.667" x2="326.667" y2="468.667" style=" fill: none; stroke: #000000; stroke-width:0.5;" />
<line x1="460" y1="471.667" x2="460" y2="610" style=" fill: none; stroke: #000000; stroke-width:0.5;" />
<line x1="460" y1="610" x2="460" y2="613" style=" fill: none; stroke: #000000; stroke-width:0.5;" />
<line x1="460" y1="471.667" x2="460" y2="468.667" style=" fill: none; stroke: #000000; stroke-width:0.5;" />
<line x1="60" y1="610" x2="60" y2="613" style=" fill: none; stroke: #000000; stroke-width:0.5;" />
<line x1="60" y1="471.667" x2="60" y2="468.667" style=" fill: none; stroke: #000000; stroke-width:0.5;" />
<line x1="82.2222" y1="610" x2="82.2222" y2="613" style=" fill: none; stroke: #000000; stroke-width:0.5;" />
<line x1="82.2222" y1="471.667" x2="82.2222" y2="468.667" style=" fill: none; stroke: #000000; stroke-width:0.5;" />
<line x1="104.444" y1="610" x2="104.444" y2="613" style=" fill: none; stroke: #000000; stroke-width:0.5;" />
<line x1="104.444" y1="471.667" x2="104.444" y2="468.667" style=" fill: none; stroke: #000000; stroke-width:0.5;" />
<line x1="126.667" y1="610" x2="126.667" y2="613" style=" fill: none; stroke: #000000; stroke-width:0.5;" />
<line x1="126.667" y1="471.667" x2="126.667" y2="468.667" style=" fill: none; stroke: #000000; stroke-width:0.5;" />
<line x1="148.889" y1="610" x2="148.889" y2="613" style=" fill: none; stroke: #000000; stroke-width:0.5;" />
<line x1="148.889" y1="471.667" x2="148.889" y2="468.667" style=" fill: none; stroke: #000000; stroke-width:0.5;" />
<line x1="171.111" y1="610" x2="171.111" y2="613" style=" fill: none; stroke: #000000; stroke-width:0.5;" />
<line x1="171.111" y1="471.667" x2="171.111" y2="468.667" style=" fill: none; stroke: #000000; stroke-width:0.5;" />
<line x1="193.333" y1="610" x2="193.333" y2="613" style=" fill: none; stroke: #000000; stroke-width:0.5;" />
<line x1="193.333" y1="471.667" x2="193.333" y2="468.667" style=" fill: none; stroke: #000000; stroke-width:0.5;" />
<line x1="215.556" y1="610" x2="215.556" y2="613" style=" fill: none; stroke: #000000; stroke-width:0.5;" />
<line x1="215.556" y1="471.667" x2="215.556" y2="468.667" style=" fill: none; stroke: #000000; stroke-width:0.5;" />
<line x1="237.778" y1="610" x2="237.778" y2="613" style=" fill: none; stroke: #000000; stroke-width:0.5;" />
<line x1="237.778" y1="471.667" x2="237.778" y2="468.667" style=" fill: none; stroke: #000000; stroke-width:0.5;" />
<line x1="260" y1="610" x2="260" y2="613" style=" fill: none; stroke: #000000; stroke-width:0.5;" />
<line x1="260" y1="471.667" x2="260" y2="468.667" style=" fill: none; stroke: #000000; stroke-width:0.5;" />
<line x1="282.222" y1="610" x2="282.222" y2="613" style=" fill: none; stroke: #000000; stroke-width:0.5;" />
<line x1="282.222" y1="471.667" x2="282.222" y2="468.667" style=" fill: none; stroke: #000000; stroke-width:0.5;" />
<line x1="304.444" y1="610" x2="304.444" y2="613" style=" fill: none; stroke: #000000; stroke-width:0.5;" />
<line x1="304.444" y1="471.667" x2="304.444" y2="468.667" style=" fill: none; stroke: #000000; stroke-width:0.5;" />
<line x1="326.667" y1="610" x2="326.667" y2="613" style=" fill: none; stroke: #000000; stroke-width:0.5;" />
<line x1="326.667" y1="471.667" x2="326.667" y2="468.667" style=" fill: none; stroke: #000000; stroke-width:0.5;" />
<line x1="348.889" y1="610" x2="348.889" y2="613" style=" fill: none; stroke: #000000; stroke-width:0.5;" />
<line x1="348.889" y1="471.667" x2="348.889" y2="468.667" style=" fill: none; stroke: #000000; stroke-width:0.5;" />
<line x1="371.111" y1="610" x2="371.111" y2="613" style=" fill: none; stroke: #000000; stroke-width:0.5;" />
<line x1="371.111" y1="471.667" x2="371.111" y2="468.667" style=" fill: none; stroke: #000000; stroke-width:0.5;" />
<line x1="393.333" y1="610" x2="393.333" y2="613" style=" fill: none; stroke: #000000; stroke-width:0.5;" />
<line x1="393.333" y1="471.667" x2="393.333" y2="468.667" style=" fill: none; stroke: #000000; stroke-width:0.5;" />
<line x1="415.556" y1="610" x2="415.556" y2="613" style=" fill: none; stroke: #000000; stroke-width:0.5;" />
<line x1="415.556" y1="471.667" x2="415.556" y2="468.667" style=" fill: none; stroke: #000000; stroke-width:0.5;" />
<line x1="437.778" y1="610" x2="437.778" y2="613" style=" fill: none; stroke: #000000; stroke-width:0.5;" />
<line x1="437.778" y1="471.667" x2="437.778" y2="468.667" style=" fill: none; stroke: #000000; stroke-width:0.5;" />
<line x1="460" y1="610" x2="460" y2="613" style=" fill: none; stroke: #000000; stroke-width:0.5;" />
<line x1="460" y1="471.667" x2="460" y2="468.667" style=" fill: none; stroke: #000000; stroke-width:0.5;" />
<line x1="60" y1="610" x2="57" y2="610" style=" fill: none; stroke: #000000; stroke-width:0.5;" />
<line x1="460" y1="610" x2="463" y2="610" style=" fill: none; stroke: #000000; stroke-width:0.5;" />
<line x1="60" y1="582.333" x2="57" y2="582.333" style=" fill: none; stroke: #000000; stroke-width:0.5;" />
<line x1="460" y1="582.333" x2="463" y2="582.333" style=" fill: none; stroke: #000000; stroke-width:0.5;" />
<line x1="60" y1="554.667" x2="57" y2="554.667" style=" fill: none; stroke: #000000; stroke-width:0.5;" />
<line x1="460" y1="554.667" x2="463" y2="554.667" style=" fill: none; stroke: #000000; stroke-width:0.5;" />
<line x1="60" y1="527" x2="57" y2="527" style=" fill: none; stroke: #000000; stroke-width:0.5;" />
<line x1="460" y1="527" x2="463" y2="527" style=" fill: none; stroke: #000000; stroke-width:0.5;" />
<line x1="60" y1="499.333" x2="57" y2="499.333" style=" fill: none; stroke: #000000; stroke-width:0.5;" />
<line x1="460" y1="499.333" x2="463" y2="499.333" style=" fill: none; stroke: #000000; stroke-width:0.5;" />
<line x1="60" y1="471.667" x2="57" y2="471.667" style=" fill: none; stroke: #000000; stroke-width:0.5;" />
<line x1="460" y1="471.667" x2="463" y2="471.667" style=" fill: none; stroke: #000000; stroke-width:0.5;" />
<text x="43" y="613.5" style=" stroke:none; fill: #000000; font-family:sans-serif; font-size:10;">
35</text>
<text x="43" y="530.5" style=" stroke:none; fill: #000000; font-family:sans-serif; font-size:10;">
50</text>
<text x="30" y="572.833" style=" stroke:none; fill: #000000; font-family:sans-serif; font-size:10;" transform="matrix(0 -1 1 0 -542.833 602.833)">
Range Gate</text>
<image x="470" y="471.833" width="1" height="256" xlink:href="example2-4.png" transform="matrix(8 0 0 0.539062 -3290 217.486)" />
<rect x="470" y="471.833" width="8" height="138" style="stroke: #000000; stroke-width:0.5; fill:none;" />
<line x1="470" y1="609.833" x2="478" y2="609.833" style=" fill: none; stroke: #000000; stroke-width:0.5;" />
<line x1="470" y1="596.033" x2="478" y2="596.033" style=" fill: none; stroke: #000000; stroke-width:0.5;" />
<line x1="470" y1="582.233" x2="478" y2="582.233" style=" fill: none; stroke: #000000; stroke-width:0.5;" />
<line x1="470" y1="568.433" x2="478" y2="568.433" style=" fill: none; stroke: #000000; stroke-width:0.5;" />
<line x1="470" y1="554.633" x2="478" y2="554.633" style=" fill: none; stroke: #000000; stroke-width:0.5;" />
<line x1="470" y1="540.833" x2="478" y2="540.833" style=" fill: none; stroke: #000000; stroke-width:0.5;" />
<line x1="470" y1="527.033" x2="478" y2="527.033" style=" fill: none; stroke: #000000; stroke-width:0.5;" />
<line x1="470" y1="513.233" x2="478" y2="513.233" style=" fill: none; stroke: #000000; stroke-width:0.5;" />
<line x1="470" y1="499.433" x2="478" y2="499.433" style=" fill: none; stroke: #000000; stroke-width:0.5;" />
<line x1="470" y1="485.633" x2="478" y2="485.633" style=" fill: none; stroke: #000000; stroke-width:0.5;" />
<line x1="470" y1="471.833" x2="478" y2="471.833" style=" fill: none; stroke: #000000; stroke-width:0.5;" />
<text x="483" y="613.333" style=" stroke:none; fill: #000000; font-family:sans-serif; font-size:10;">
0 m/s</text>
<text x="483" y="475.333" style=" stroke:none; fill: #000000; font-family:sans-serif; font-size:10;">
500 m/s</text>
<text x="218.5" y="464.667" style=" stroke:none; fill: #000000; font-family:sans-serif; font-size:10;">
Spectral Width</text>
<text x="46.5" y="625" style=" stroke:none; fill: #000000; font-family:sans-serif; font-size:10;">
00:01</text>
<text x="181.333" y="625" style=" stroke:none; fill: #000000; font-family:sans-serif; font-size:10;">
01:01</text>
<text x="313.167" y="625" style=" stroke:none; fill: #000000; font-family:sans-serif; font-size:10;">
02:01</text>
<text x="446.5" y="625" style=" stroke:none; fill: #000000; font-family:sans-serif; font-size:10;">
03:01</text>
<text x="238" y="637" style=" stroke:none; fill: #000000; font-family:sans-serif; font-size:10;">
UT Time</text>
<image x="60" y="88" width="400" height="1" xlink:href="example2-6.png" transform="matrix(1 0 0 12 0 -968)" />
<image x="60" y="108" width="400" height="1" xlink:href="example2-7.png" transform="matrix(1 0 0 12 0 -1188)" />
<rect x="60" y="88" width="400" height="12" style="stroke: #000000; stroke-width:0.5; fill:none;" />
<rect x="60" y="108" width="400" height="12" style="stroke: #000000; stroke-width:0.5; fill:none;" />
<text x="2" y="96.5" style=" stroke:none; fill: #000000; font-family:sans-serif; font-size:10;">
Frequency</text>
<text x="463" y="97.5" style=" stroke:none; fill: #000000; font-family:sans-serif; font-size:10;">
Revision:0.0</text>
<text x="9" y="117.5" style=" stroke:none; fill: #000000; font-family:sans-serif; font-size:10;">
Noise dB</text>
<image x="280" y="68" width="10" height="1" xlink:href="example2-8.png" transform="matrix(16 0 0 10 -4200 -612)" />
<rect x="280" y="68" width="160" height="10" style="stroke: #000000; stroke-width:0.5; fill:none;" />
<line x1="280" y1="68" x2="280" y2="78" style=" fill: none; stroke: #000000; stroke-width:0.5;" />
<line x1="296" y1="68" x2="296" y2="78" style=" fill: none; stroke: #000000; stroke-width:0.5;" />
<line x1="312" y1="68" x2="312" y2="78" style=" fill: none; stroke: #000000; stroke-width:0.5;" />
<line x1="328" y1="68" x2="328" y2="78" style=" fill: none; stroke: #000000; stroke-width:0.5;" />
<line x1="344" y1="68" x2="344" y2="78" style=" fill: none; stroke: #000000; stroke-width:0.5;" />
<line x1="360" y1="68" x2="360" y2="78" style=" fill: none; stroke: #000000; stroke-width:0.5;" />
<line x1="376" y1="68" x2="376" y2="78" style=" fill: none; stroke: #000000; stroke-width:0.5;" />
<line x1="392" y1="68" x2="392" y2="78" style=" fill: none; stroke: #000000; stroke-width:0.5;" />
<line x1="408" y1="68" x2="408" y2="78" style=" fill: none; stroke: #000000; stroke-width:0.5;" />
<line x1="424" y1="68" x2="424" y2="78" style=" fill: none; stroke: #000000; stroke-width:0.5;" />
<line x1="440" y1="68" x2="440" y2="78" style=" fill: none; stroke: #000000; stroke-width:0.5;" />
<text x="277" y="63" style=" stroke:none; fill: #000000; font-family:sans-serif; font-size:10;">
0</text>
<text x="293" y="63" style=" stroke:none; fill: #000000; font-family:sans-serif; font-size:10;">
3</text>
<text x="309" y="63" style=" stroke:none; fill: #000000; font-family:sans-serif; font-size:10;">
6</text>
<text x="325" y="63" style=" stroke:none; fill: #000000; font-family:sans-serif; font-size:10;">
9</text>
<text x="339" y="63" style=" stroke:none; fill: #000000; font-family:sans-serif; font-size:10;">
12</text>
<text x="355" y="63" style=" stroke:none; fill: #000000; font-family:sans-serif; font-size:10;">
15</text>
<text x="371" y="63" style=" stroke:none; fill: #000000; font-family:sans-serif; font-size:10;">
18</text>
<text x="387" y="63" style=" stroke:none; fill: #000000; font-family:sans-serif; font-size:10;">
21</text>
<text x="401.5" y="63" style=" stroke:none; fill: #000000; font-family:sans-serif; font-size:10;">
24</text>
<text x="417.5" y="63" style=" stroke:none; fill: #000000; font-family:sans-serif; font-size:10;">
27</text>
<text x="433.5" y="63" style=" stroke:none; fill: #000000; font-family:sans-serif; font-size:10;">
30</text>
<text x="246" y="76.5" style=" stroke:none; fill: #000000; font-family:sans-serif; font-size:10;">
Noise</text>
<image x="80" y="68" width="10" height="1" xlink:href="example2-8.png" transform="matrix(16 0 0 10 -1200 -612)" />
<rect x="80" y="68" width="160" height="10" style="stroke: #000000; stroke-width:0.5; fill:none;" />
<line x1="80" y1="68" x2="80" y2="78" style=" fill: none; stroke: #000000; stroke-width:0.5;" />
<line x1="112" y1="68" x2="112" y2="78" style=" fill: none; stroke: #000000; stroke-width:0.5;" />
<line x1="144" y1="68" x2="144" y2="78" style=" fill: none; stroke: #000000; stroke-width:0.5;" />
<line x1="176" y1="68" x2="176" y2="78" style=" fill: none; stroke: #000000; stroke-width:0.5;" />
<line x1="208" y1="68" x2="208" y2="78" style=" fill: none; stroke: #000000; stroke-width:0.5;" />
<text x="77" y="63" style=" stroke:none; fill: #000000; font-family:sans-serif; font-size:10;">
9</text>
<text x="108.5" y="63" style=" stroke:none; fill: #000000; font-family:sans-serif; font-size:10;">
11</text>
<text x="139" y="63" style=" stroke:none; fill: #000000; font-family:sans-serif; font-size:10;">
13</text>
<text x="171" y="63" style=" stroke:none; fill: #000000; font-family:sans-serif; font-size:10;">
15</text>
<text x="203" y="63" style=" stroke:none; fill: #000000; font-family:sans-serif; font-size:10;">
17</text>
<text x="20" y="75.5" style=" stroke:none; fill: #000000; font-family:sans-serif; font-size:10;">
Frequency</text>
<text x="2" y="16.5" style=" stroke:none; fill: #000000; font-family:sans-serif; font-size:12;">
Station:Kodiak (kod)</text>
<text x="2" y="33" style=" stroke:none; fill: #000000; font-family:sans-serif; font-size:12;">
Operated by:University of Alaska,Fairbanks</text>
<text x="360" y="16.5" style=" stroke:none; fill: #000000; font-family:sans-serif; font-size:12;">
January, 20 2004 (20040120)</text>
<text x="441" y="33" style=" stroke:none; fill: #000000; font-family:sans-serif; font-size:12;">
Program ID:9050</text>
<text x="244.5" y="16.5" style=" stroke:none; fill: #000000; font-family:sans-serif; font-size:12;">
Beam 05</text>
</svg>
