<?xml version="1.0" standalone="no"?>
<!DOCTYPE svg PUBLIC "-//W3C//DTD SVG 1.1//EN"
"http://www.w3.org/Graphics/SVG/1.1/DTD/svg11.dtd">
<svg viewBox="0 0 400 400" version="1.1"
xmlns="http://www.w3.org/2000/svg" xmlns:xlink="http://www.w3.org/1999/xlink">
<rect x="0" y="0" width="400" height="400" style="stroke:none; fill:#ffffff;" />
<image x="0" y="0" width="32" height="32" xlink:href="ContourModify-1.png" transform="matrix(12.5 0 0 12.5 0 0)" />
<path d="M 153.641 -6.58182 C 150.866 -9.91907 150.866 -9.91907 153.641 -6.58182"
 style=" fill:none; stroke: #000000; stroke-width:0.5;" />
<path d="M 153.641 -6.58182 C 156.417 -3.24457 156.417 -3.24457 153.641 -6.58182"
 style=" fill:none; stroke: #000000; stroke-width:0.5;" />
<path d="M 168.949 18.9188 C 171.659 25.0476 173.631 35.3003 172.892 39.4241"
 style=" fill:none; stroke: #000000; stroke-width:0.5;" />
<path d="M 172.892 39.4241 C 172.154 43.5479 166.774 48.9274 162.133 50.1831"
 style=" fill:none; stroke: #000000; stroke-width:0.5;" />
<path d="M 162.133 50.1831 C 157.492 51.4388 148.514 51.2998 144.178 49.9051"
 style=" fill:none; stroke: #000000; stroke-width:0.5;" />
<path d="M 144.178 49.9051 C 139.841 48.5105 131.063 44.0297 126.623 40.9435"
 style=" fill:none; stroke: #000000; stroke-width:0.5;" />
<path d="M 126.623 40.9435 C 122.182 37.8574 117.741 34.7712 117.741 34.7712"
 style=" fill:none; stroke: #000000; stroke-width:0.5;" />
<text x="102.356" y="25.6916" style=" stroke:none; fill: #000000; font-family:sans-serif; font-size:10;" transform="matrix(0.744961 0.667108 -0.667108 0.744961 43.2438 -61.7301)">
15</text>
<path d="M 99.0891 18.0682 C 99.0891 18.0682 115.199 15.2164 131.309 12.3646"
 style=" fill:none; stroke: #000000; stroke-width:0.5;" />
<path d="M 131.309 12.3646 C 147.419 9.51283 166.239 12.7899 168.949 18.9188"
 style=" fill:none; stroke: #000000; stroke-width:0.5;" />
<path d="M 6.87279 178.696 C 4.26641 173.613 -2.15674 163.508 -5.97351 158.486"
 style=" fill:none; stroke: #000000; stroke-width:0.5;" />
<path d="M -5.97351 158.486 C -9.79028 153.464 -7.18391 158.547 -0.760755 168.652"
 style=" fill:none; stroke: #000000; stroke-width:0.5;" />
<path d="M -0.760755 168.652 C 5.6624 178.757 9.47917 183.779 6.87279 178.696"
 style=" fill:none; stroke: #000000; stroke-width:0.5;" />
<path d="M 7.35363 203.755 C 4.81185 209.079 -2.52644 214.025 -7.32294 213.648"
 style=" fill:none; stroke: #000000; stroke-width:0.5;" />
<path d="M -7.32294 213.648 C -12.1194 213.271 -21.0664 210.597 -25.2168 208.301"
 style=" fill:none; stroke: #000000; stroke-width:0.5;" />
<path d="M -25.2168 208.301 C -29.3673 206.004 -38.5048 199.856 -43.4919 196.004"
 style=" fill:none; stroke: #000000; stroke-width:0.5;" />
<path d="M -43.4919 196.004 C -48.4789 192.153 -36.9902 189.503 -20.5144 190.705"
 style=" fill:none; stroke: #000000; stroke-width:0.5;" />
<path d="M -20.5144 190.705 C -4.03859 191.907 9.89542 198.432 7.35363 203.755"
 style=" fill:none; stroke: #000000; stroke-width:0.5;" />
<path d="M 349.26 90.9223 C 350.766 95.8416 353.848 103.604 355.424 106.448"
 style=" fill:none; stroke: #000000; stroke-width:0.5;" />
<path d="M 355.424 106.448 C 357 109.292 362.544 117.005 366.513 121.875"
 style=" fill:none; stroke: #000000; stroke-width:0.5;" />
<path d="M 366.513 121.875 C 370.482 126.745 378.903 136.002 383.355 140.388"
 style=" fill:none; stroke: #000000; stroke-width:0.5;" />
<path d="M 383.355 140.388 C 387.808 144.775 397.209 153.051 402.158 156.941"
 style=" fill:none; stroke: #000000; stroke-width:0.5;" />
<path d="M 402.158 156.941 C 407.107 160.83 412.057 164.72 412.057 164.72"
 style=" fill:none; stroke: #000000; stroke-width:0.5;" />
<text x="412.018" y="168.58" style=" stroke:none; fill: #000000; font-family:sans-serif; font-size:10;" transform="matrix(0.902324 0.431059 -0.431059 0.902324 112.912 -161.138)">
15</text>
<path d="M 424.02 170.435 C 424.02 170.435 428.066 171.586 432.113 172.738"
 style=" fill:none; stroke: #000000; stroke-width:0.5;" />
<path d="M 432.113 172.738 C 436.16 173.89 416.717 151.552 393.228 128.063"
 style=" fill:none; stroke: #000000; stroke-width:0.5;" />
<path d="M 393.228 128.063 C 369.738 104.573 347.755 86.003 349.26 90.9223"
 style=" fill:none; stroke: #000000; stroke-width:0.5;" />
<path d="M 214.811 228.331 C 218.324 229.764 227.242 234.63 232.648 238.062"
 style=" fill:none; stroke: #000000; stroke-width:0.5;" />
<path d="M 232.648 238.062 C 238.055 241.495 245.871 246.936 248.282 248.945"
 style=" fill:none; stroke: #000000; stroke-width:0.5;" />
<path d="M 248.282 248.945 C 250.693 250.954 257.093 256.987 261.082 261.012"
 style=" fill:none; stroke: #000000; stroke-width:0.5;" />
<path d="M 261.082 261.012 C 265.072 265.037 271.41 271.957 273.758 274.853"
 style=" fill:none; stroke: #000000; stroke-width:0.5;" />
<path d="M 273.758 274.853 C 276.106 277.749 278.454 280.645 278.454 280.645"
 style=" fill:none; stroke: #000000; stroke-width:0.5;" />
<text x="279.49" y="289.217" style=" stroke:none; fill: #000000; font-family:sans-serif; font-size:10;" transform="matrix(0.512035 0.858964 -0.858964 0.512035 384.808 -98.9441)">
15</text>
<path d="M 291.659 302.796 C 291.659 302.796 292.649 306.224 293.64 309.653"
 style=" fill:none; stroke: #000000; stroke-width:0.5;" />
<path d="M 293.64 309.653 C 294.63 313.082 292.494 321.42 289.368 326.329"
 style=" fill:none; stroke: #000000; stroke-width:0.5;" />
<path d="M 289.368 326.329 C 286.241 331.238 277.813 335.265 272.511 334.383"
 style=" fill:none; stroke: #000000; stroke-width:0.5;" />
<path d="M 272.511 334.383 C 267.21 333.501 259.121 330.968 256.333 329.318"
 style=" fill:none; stroke: #000000; stroke-width:0.5;" />
<path d="M 256.333 329.318 C 253.546 327.668 250.759 326.018 250.759 326.018"
 style=" fill:none; stroke: #000000; stroke-width:0.5;" />
<text x="234.659" y="318.076" style=" stroke:none; fill: #000000; font-family:sans-serif; font-size:10;" transform="matrix(0.793351 0.608765 -0.608765 0.793351 242.126 -77.1221)">
15</text>
<path d="M 230.754 310.668 C 230.754 310.668 226.298 306.284 221.843 301.901"
 style=" fill:none; stroke: #000000; stroke-width:0.5;" />
<path d="M 221.843 301.901 C 217.388 297.517 209.007 288.22 205.083 283.306"
 style=" fill:none; stroke: #000000; stroke-width:0.5;" />
<path d="M 205.083 283.306 C 201.158 278.391 195.12 269.981 193.007 266.484"
 style=" fill:none; stroke: #000000; stroke-width:0.5;" />
<path d="M 193.007 266.484 C 190.894 262.988 187.85 254.141 186.919 248.791"
 style=" fill:none; stroke: #000000; stroke-width:0.5;" />
<path d="M 186.919 248.791 C 185.988 243.441 185.057 238.09 185.057 238.09"
 style=" fill:none; stroke: #000000; stroke-width:0.5;" />
<text x="193.751" y="237.265" style=" stroke:none; fill: #000000; font-family:sans-serif; font-size:10;" transform="matrix(0.874198 -0.48557 0.48557 0.874198 -90.8345 123.928)">
15</text>
<path d="M 207.787 225.465 C 207.787 225.465 211.299 226.898 214.811 228.331"
 style=" fill:none; stroke: #000000; stroke-width:0.5;" />
<path d="M 178.604 0.879884 C 176.518 -1.68043 170.235 -8.88329 166.038 -13.5258"
 style=" fill:none; stroke: #000000; stroke-width:0.5;" />
<path d="M 166.038 -13.5258 C 161.842 -18.1684 163.929 -15.6081 170.212 -8.40521"
 style=" fill:none; stroke: #000000; stroke-width:0.5;" />
<path d="M 170.212 -8.40521 C 176.494 -1.20235 180.691 3.4402 178.604 0.879884"
 style=" fill:none; stroke: #000000; stroke-width:0.5;" />
<path d="M 195.504 27.7193 C 198.431 33.6315 201.535 43.7854 201.713 48.0271"
 style=" fill:none; stroke: #000000; stroke-width:0.5;" />
<path d="M 201.713 48.0271 C 201.89 52.2688 200.277 60.1729 198.486 63.8354"
 style=" fill:none; stroke: #000000; stroke-width:0.5;" />
<path d="M 198.486 63.8354 C 196.695 67.4979 190.668 73.5248 186.432 75.8892"
 style=" fill:none; stroke: #000000; stroke-width:0.5;" />
<path d="M 186.432 75.8892 C 182.196 78.2537 173.707 80.4525 169.453 80.2869"
 style=" fill:none; stroke: #000000; stroke-width:0.5;" />
<path d="M 169.453 80.2869 C 165.199 80.1214 156.485 78.065 152.024 76.1743"
 style=" fill:none; stroke: #000000; stroke-width:0.5;" />
<path d="M 152.024 76.1743 C 147.564 74.2835 143.103 72.3927 143.103 72.3928"
 style=" fill:none; stroke: #000000; stroke-width:0.5;" />
<text x="127.642" y="65.8509" style=" stroke:none; fill: #000000; font-family:sans-serif; font-size:10;" transform="matrix(0.819489 0.573095 -0.573095 0.819489 60.7796 -61.2642)">
30</text>
<path d="M 126.845 61.0228 C 126.845 61.0228 122.047 56.9818 117.25 52.9407"
 style=" fill:none; stroke: #000000; stroke-width:0.5;" />
<path d="M 117.25 52.9407 C 112.452 48.8997 103.124 40.5496 98.5945 36.2405"
 style=" fill:none; stroke: #000000; stroke-width:0.5;" />
<path d="M 98.5945 36.2405 C 94.0648 31.9313 114.564 24.6904 139.593 21.7585"
 style=" fill:none; stroke: #000000; stroke-width:0.5;" />
<path d="M 139.593 21.7585 C 164.622 18.8267 192.577 21.8071 195.504 27.7193"
 style=" fill:none; stroke: #000000; stroke-width:0.5;" />
<path d="M 33.4351 187.819 C 30.6868 182.713 24.1376 172.569 20.3367 167.531"
 style=" fill:none; stroke: #000000; stroke-width:0.5;" />
<path d="M 20.3367 167.531 C 16.5359 162.493 8.56638 152.785 4.39773 148.115"
 style=" fill:none; stroke: #000000; stroke-width:0.5;" />
<path d="M 4.39773 148.115 C 0.229085 143.445 6.77828 153.589 17.4961 168.403"
 style=" fill:none; stroke: #000000; stroke-width:0.5;" />
<path d="M 17.4961 168.403 C 28.214 183.217 36.1835 192.925 33.4351 187.819"
 style=" fill:none; stroke: #000000; stroke-width:0.5;" />
<path d="M 40.3279 209.442 C 40.6297 213.575 37.3115 222.927 33.6916 228.146"
 style=" fill:none; stroke: #000000; stroke-width:0.5;" />
<path d="M 33.6916 228.146 C 30.0717 233.365 23.2031 239.755 19.9545 240.925"
 style=" fill:none; stroke: #000000; stroke-width:0.5;" />
<path d="M 19.9545 240.925 C 16.7059 242.096 8.05679 242.286 2.65635 241.305"
 style=" fill:none; stroke: #000000; stroke-width:0.5;" />
<path d="M 2.65635 241.305 C -2.7441 240.324 -12.2197 237.005 -16.2948 234.667"
 style=" fill:none; stroke: #000000; stroke-width:0.5;" />
<path d="M -16.2948 234.667 C -20.3699 232.329 -29.4651 226.172 -34.4851 222.353"
 style=" fill:none; stroke: #000000; stroke-width:0.5;" />
<path d="M -34.4851 222.353 C -39.5052 218.534 -44.5252 214.716 -44.5252 214.716"
 style=" fill:none; stroke: #000000; stroke-width:0.5;" />
<text x="-61.0281" y="204.635" style=" stroke:none; fill: #000000; font-family:sans-serif; font-size:10;" transform="matrix(0.744937 0.667135 -0.667135 0.744937 120.953 92.9088)">
30</text>
<path d="M -63.1769 198.012 C -63.1769 198.012 -37.4516 198.803 -11.7262 199.594"
 style=" fill:none; stroke: #000000; stroke-width:0.5;" />
<path d="M -11.7262 199.594 C 13.9991 200.385 40.0262 205.309 40.3279 209.442"
 style=" fill:none; stroke: #000000; stroke-width:0.5;" />
<path d="M 319.431 63.1045 C 318.917 67.01 320.276 76.1322 322.149 81.3489"
 style=" fill:none; stroke: #000000; stroke-width:0.5;" />
<path d="M 322.149 81.3489 C 324.022 86.5656 327.534 94.5629 329.173 97.3435"
 style=" fill:none; stroke: #000000; stroke-width:0.5;" />
<path d="M 329.173 97.3435 C 330.812 100.124 336.341 107.853 340.231 112.802"
 style=" fill:none; stroke: #000000; stroke-width:0.5;" />
<path d="M 340.231 112.802 C 344.122 117.75 352.222 127.327 356.433 131.956"
 style=" fill:none; stroke: #000000; stroke-width:0.5;" />
<path d="M 356.433 131.956 C 360.643 136.584 369.288 145.616 373.723 150.021"
 style=" fill:none; stroke: #000000; stroke-width:0.5;" />
<path d="M 373.723 150.021 C 378.158 154.425 382.592 158.829 382.592 158.829"
 style=" fill:none; stroke: #000000; stroke-width:0.5;" />
<text x="384.745" y="165.451" style=" stroke:none; fill: #000000; font-family:sans-serif; font-size:10;" transform="matrix(0.745269 0.666764 -0.666764 0.745269 208.323 -214.389)">
30</text>
<path d="M 401.253 175.524 C 401.253 175.524 405.706 178.957 410.158 182.389"
 style=" fill:none; stroke: #000000; stroke-width:0.5;" />
<path d="M 410.158 182.389 C 414.611 185.822 422.502 191.189 425.94 193.124"
 style=" fill:none; stroke: #000000; stroke-width:0.5;" />
<path d="M 425.94 193.124 C 429.378 195.058 437.191 198.452 441.566 199.91"
 style=" fill:none; stroke: #000000; stroke-width:0.5;" />
<path d="M 441.566 199.91 C 445.94 201.369 454.045 202.138 457.775 201.449"
 style=" fill:none; stroke: #000000; stroke-width:0.5;" />
<path d="M 457.775 201.449 C 461.506 200.76 465.236 200.071 465.236 200.071"
 style=" fill:none; stroke: #000000; stroke-width:0.5;" />
<text x="385.776" y="125.561" style=" stroke:none; fill: #000000; font-family:sans-serif; font-size:10;" transform="matrix(0.707107 0.707107 -0.707107 0.707107 201.776 -236.009)">
30</text>
<path d="M 444.023 178.858 C 382.241 117.076 319.945 59.199 319.431 63.1045"
 style=" fill:none; stroke: #000000; stroke-width:0.5;" />
<path d="M 189.302 198.141 C 193.812 198.231 201.978 199.924 205.635 201.525"
 style=" fill:none; stroke: #000000; stroke-width:0.5;" />
<path d="M 205.635 201.525 C 209.292 203.127 218.265 208.252 223.581 211.774"
 style=" fill:none; stroke: #000000; stroke-width:0.5;" />
<path d="M 223.581 211.774 C 228.898 215.296 237.299 221.333 240.384 223.848"
 style=" fill:none; stroke: #000000; stroke-width:0.5;" />
<path d="M 240.384 223.848 C 243.469 226.362 250.549 232.54 254.545 236.203"
 style=" fill:none; stroke: #000000; stroke-width:0.5;" />
<path d="M 254.545 236.203 C 258.541 239.867 266.941 247.964 271.345 252.398"
 style=" fill:none; stroke: #000000; stroke-width:0.5;" />
<path d="M 271.345 252.398 C 275.75 256.832 280.155 261.266 280.155 261.266"
 style=" fill:none; stroke: #000000; stroke-width:0.5;" />
<text x="279.247" y="265.47" style=" stroke:none; fill: #000000; font-family:sans-serif; font-size:10;" transform="matrix(0.672675 0.739938 -0.739938 0.672675 287.836 -119.731)">
30</text>
<path d="M 292.263 274.585 C 292.263 274.585 295.339 278.41 298.415 282.236"
 style=" fill:none; stroke: #000000; stroke-width:0.5;" />
<path d="M 298.415 282.236 C 301.492 286.061 307.982 295.312 311.395 300.737"
 style=" fill:none; stroke: #000000; stroke-width:0.5;" />
<path d="M 311.395 300.737 C 314.809 306.162 319.458 314.771 320.694 317.954"
 style=" fill:none; stroke: #000000; stroke-width:0.5;" />
<path d="M 320.694 317.954 C 321.93 321.138 323.005 328.901 322.845 333.481"
 style=" fill:none; stroke: #000000; stroke-width:0.5;" />
<path d="M 322.845 333.481 C 322.685 338.061 322.524 342.641 322.524 342.641"
 style=" fill:none; stroke: #000000; stroke-width:0.5;" />
<text x="312.311" y="358.034" style=" stroke:none; fill: #000000; font-family:sans-serif; font-size:10;" transform="matrix(0.700719 -0.713437 0.713437 0.700719 -161.966 329.967)">
30</text>
<path d="M 306.214 359.247 C 306.214 359.247 303.139 360.591 300.064 361.936"
 style=" fill:none; stroke: #000000; stroke-width:0.5;" />
<path d="M 300.064 361.936 C 296.989 363.28 288.174 363.183 282.434 361.74"
 style=" fill:none; stroke: #000000; stroke-width:0.5;" />
<path d="M 282.434 361.74 C 276.694 360.298 268.179 357.211 265.405 355.566"
 style=" fill:none; stroke: #000000; stroke-width:0.5;" />
<path d="M 265.405 355.566 C 262.63 353.921 254.817 348.476 249.779 344.676"
 style=" fill:none; stroke: #000000; stroke-width:0.5;" />
<path d="M 249.779 344.676 C 244.74 340.875 239.701 337.075 239.701 337.075"
 style=" fill:none; stroke: #000000; stroke-width:0.5;" />
<text x="223.167" y="327.042" style=" stroke:none; fill: #000000; font-family:sans-serif; font-size:10;" transform="matrix(0.746913 0.664922 -0.664922 0.746913 273.938 -65.6186)">
30</text>
<path d="M 220.997 320.424 C 220.997 320.424 216.562 316.021 212.127 311.617"
 style=" fill:none; stroke: #000000; stroke-width:0.5;" />
<path d="M 212.127 311.617 C 207.691 307.214 199.055 298.172 194.854 293.535"
 style=" fill:none; stroke: #000000; stroke-width:0.5;" />
<path d="M 194.854 293.535 C 190.652 288.897 182.585 279.287 178.718 274.315"
 style=" fill:none; stroke: #000000; stroke-width:0.5;" />
<path d="M 178.718 274.315 C 174.851 269.343 168.946 261.083 166.908 257.795"
 style=" fill:none; stroke: #000000; stroke-width:0.5;" />
<path d="M 166.908 257.795 C 164.869 254.507 162.831 251.219 162.831 251.219"
 style=" fill:none; stroke: #000000; stroke-width:0.5;" />
<text x="154.651" y="233.837" style=" stroke:none; fill: #000000; font-family:sans-serif; font-size:10;" transform="matrix(0.253843 0.967245 -0.967245 0.253843 341.572 24.8937)">
30</text>
<path d="M 156.541 227.252 C 156.541 227.252 157.525 223.817 158.51 220.382"
 style=" fill:none; stroke: #000000; stroke-width:0.5;" />
<path d="M 158.51 220.382 C 159.495 216.947 165.43 209.624 170.381 205.736"
 style=" fill:none; stroke: #000000; stroke-width:0.5;" />
<path d="M 170.381 205.736 C 175.332 201.848 184.792 198.05 189.302 198.141"
 style=" fill:none; stroke: #000000; stroke-width:0.5;" />
<path d="M 200.253 5.03726 C 196.088 0.491301 187.59 -8.56059 183.257 -13.0665"
 style=" fill:none; stroke: #000000; stroke-width:0.5;" />
<path d="M 183.257 -13.0665 C 178.924 -17.5724 170.197 -26.523 165.803 -30.9676"
 style=" fill:none; stroke: #000000; stroke-width:0.5;" />
<path d="M 165.803 -30.9676 C 161.408 -35.4123 169.907 -26.3604 182.799 -12.8639"
 style=" fill:none; stroke: #000000; stroke-width:0.5;" />
<path d="M 182.799 -12.8639 C 195.691 0.632667 204.418 9.58323 200.253 5.03726"
 style=" fill:none; stroke: #000000; stroke-width:0.5;" />
<path d="M 216.669 24.2323 C 220.592 29.1483 226.941 39.9086 229.367 45.7531"
 style=" fill:none; stroke: #000000; stroke-width:0.5;" />
<path d="M 229.367 45.7531 C 231.793 51.5975 233.268 60.9112 232.318 64.3805"
 style=" fill:none; stroke: #000000; stroke-width:0.5;" />
<path d="M 232.318 64.3805 C 231.368 67.8498 226.564 76.3036 222.71 81.2882"
 style=" fill:none; stroke: #000000; stroke-width:0.5;" />
<path d="M 222.71 81.2882 C 218.855 86.2728 210.186 95.2813 205.371 99.3053"
 style=" fill:none; stroke: #000000; stroke-width:0.5;" />
<path d="M 205.371 99.3053 C 200.556 103.329 192.083 108.722 188.424 110.09"
 style=" fill:none; stroke: #000000; stroke-width:0.5;" />
<path d="M 188.424 110.09 C 184.766 111.459 175.524 111.056 169.94 109.284"
 style=" fill:none; stroke: #000000; stroke-width:0.5;" />
<path d="M 169.94 109.284 C 164.357 107.513 158.774 105.741 158.774 105.741"
 style=" fill:none; stroke: #000000; stroke-width:0.5;" />
<text x="144.681" y="99.6674" style=" stroke:none; fill: #000000; font-family:sans-serif; font-size:10;" transform="matrix(0.803874 0.594799 -0.594799 0.803874 87.6578 -66.5087)">
45</text>
<path d="M 145.202 95.6989 C 145.202 95.6989 140.488 91.5745 135.773 87.4501"
 style=" fill:none; stroke: #000000; stroke-width:0.5;" />
<path d="M 135.773 87.4501 C 131.059 83.3257 121.794 74.9129 117.243 70.6245"
 style=" fill:none; stroke: #000000; stroke-width:0.5;" />
<path d="M 117.243 70.6245 C 112.693 66.3361 103.67 57.6813 99.1976 53.315"
 style=" fill:none; stroke: #000000; stroke-width:0.5;" />
<path d="M 99.1976 53.315 C 94.7251 48.9487 119.895 37.0369 149.538 29.4914"
 style=" fill:none; stroke: #000000; stroke-width:0.5;" />
<path d="M 149.538 29.4914 C 179.18 21.946 212.746 19.3164 216.669 24.2323"
 style=" fill:none; stroke: #000000; stroke-width:0.5;" />
<path d="M 67.3609 204.479 C 65.1213 200.088 58.9454 190.794 55.0092 185.892"
 style=" fill:none; stroke: #000000; stroke-width:0.5;" />
<path d="M 55.0092 185.892 C 51.073 180.989 42.9163 171.468 38.6958 166.85"
 style=" fill:none; stroke: #000000; stroke-width:0.5;" />
<path d="M 38.6958 166.85 C 34.4753 162.231 25.9241 153.105 21.5933 148.597"
 style=" fill:none; stroke: #000000; stroke-width:0.5;" />
<path d="M 21.5933 148.597 C 17.2625 144.089 8.53814 135.136 4.14456 130.69"
 style=" fill:none; stroke: #000000; stroke-width:0.5;" />
<path d="M 4.14456 130.69 C -0.249024 126.245 14.4781 144.665 33.5987 167.531"
 style=" fill:none; stroke: #000000; stroke-width:0.5;" />
<path d="M 33.5987 167.531 C 52.7194 190.396 69.6005 208.87 67.3609 204.479"
 style=" fill:none; stroke: #000000; stroke-width:0.5;" />
<path d="M 68.0809 231.154 C 65.9804 235.906 59.646 245.262 55.412 249.866"
 style=" fill:none; stroke: #000000; stroke-width:0.5;" />
<path d="M 55.412 249.866 C 51.178 254.471 41.6214 262.592 36.2989 266.109"
 style=" fill:none; stroke: #000000; stroke-width:0.5;" />
<path d="M 36.2989 266.109 C 30.9764 269.625 21.1403 273.047 16.6267 272.953"
 style=" fill:none; stroke: #000000; stroke-width:0.5;" />
<path d="M 16.6267 272.953 C 12.1131 272.859 4.68352 270.234 1.7676 267.704"
 style=" fill:none; stroke: #000000; stroke-width:0.5;" />
<path d="M 1.7676 267.704 C -1.14832 265.173 -8.60423 258.344 -13.1442 254.045"
 style=" fill:none; stroke: #000000; stroke-width:0.5;" />
<path d="M -13.1442 254.045 C -17.6842 249.746 -26.6933 241.078 -31.1623 236.708"
 style=" fill:none; stroke: #000000; stroke-width:0.5;" />
<path d="M -31.1623 236.708 C -35.6314 232.338 -40.1005 227.968 -40.1005 227.968"
 style=" fill:none; stroke: #000000; stroke-width:0.5;" />
<text x="-56.0651" y="217.088" style=" stroke:none; fill: #000000; font-family:sans-serif; font-size:10;" transform="matrix(0.710636 0.703559 -0.703559 0.710636 136.511 102.263)">
45</text>
<path d="M -57.8666 210.379 C -57.8666 210.379 -62.2925 205.966 -66.7183 201.553"
 style=" fill:none; stroke: #000000; stroke-width:0.5;" />
<path d="M -66.7183 201.553 C -71.1442 197.14 -38.6071 199.959 -1.64417 207.19"
 style=" fill:none; stroke: #000000; stroke-width:0.5;" />
<path d="M -1.64417 207.19 C 35.3188 214.421 70.1813 226.403 68.0809 231.154"
 style=" fill:none; stroke: #000000; stroke-width:0.5;" />
<path d="M 293.067 45.5791 C 290.083 51.4349 288.072 61.3822 289.044 65.4736"
 style=" fill:none; stroke: #000000; stroke-width:0.5;" />
<path d="M 289.044 65.4736 C 290.016 69.5651 293.33 77.2982 295.672 80.9398"
 style=" fill:none; stroke: #000000; stroke-width:0.5;" />
<path d="M 295.672 80.9398 C 298.013 84.5814 303.664 92.1889 306.973 96.1548"
 style=" fill:none; stroke: #000000; stroke-width:0.5;" />
<path d="M 306.973 96.1548 C 310.282 100.121 317.827 108.689 322.063 113.292"
 style=" fill:none; stroke: #000000; stroke-width:0.5;" />
<path d="M 322.063 113.292 C 326.299 117.895 334.873 126.999 339.211 131.499"
 style=" fill:none; stroke: #000000; stroke-width:0.5;" />
<path d="M 339.211 131.499 C 343.55 136 352.286 144.941 356.684 149.382"
 style=" fill:none; stroke: #000000; stroke-width:0.5;" />
<path d="M 356.684 149.382 C 361.082 153.823 365.48 158.264 365.48 158.264"
 style=" fill:none; stroke: #000000; stroke-width:0.5;" />
<text x="367.291" y="164.97" style=" stroke:none; fill: #000000; font-family:sans-serif; font-size:10;" transform="matrix(0.711725 0.702458 -0.702458 0.711725 221.765 -210.45)">
45</text>
<path d="M 383.273 175.826 C 383.273 175.826 387.784 180.153 392.296 184.481"
 style=" fill:none; stroke: #000000; stroke-width:0.5;" />
<path d="M 392.296 184.481 C 396.807 188.808 405.944 197.349 410.569 201.563"
 style=" fill:none; stroke: #000000; stroke-width:0.5;" />
<path d="M 410.569 201.563 C 415.194 205.777 423.114 212.71 426.409 215.428"
 style=" fill:none; stroke: #000000; stroke-width:0.5;" />
<path d="M 426.409 215.428 C 429.703 218.147 436.993 220.441 440.987 220.016"
 style=" fill:none; stroke: #000000; stroke-width:0.5;" />
<path d="M 440.987 220.016 C 444.981 219.591 448.976 219.166 448.976 219.166"
 style=" fill:none; stroke: #000000; stroke-width:0.5;" />
<text x="455.749" y="217.602" style=" stroke:none; fill: #000000; font-family:sans-serif; font-size:10;" transform="matrix(0.728498 -0.685048 0.685048 0.728498 -25.331 371.289)">
45</text>
<path d="M 467.197 202.032 C 467.197 202.032 425.156 159.991 383.115 117.95"
 style=" fill:none; stroke: #000000; stroke-width:0.5;" />
<path d="M 383.115 117.95 C 341.074 75.9087 296.05 39.7234 293.067 45.5791"
 style=" fill:none; stroke: #000000; stroke-width:0.5;" />
<path d="M 176.188 167.349 C 179.912 166.653 189.171 168.604 194.707 171.251"
 style=" fill:none; stroke: #000000; stroke-width:0.5;" />
<path d="M 194.707 171.251 C 200.242 173.898 210.652 180.509 215.527 184.473"
 style=" fill:none; stroke: #000000; stroke-width:0.5;" />
<path d="M 215.527 184.473 C 220.401 188.438 229.885 196.631 234.495 200.86"
 style=" fill:none; stroke: #000000; stroke-width:0.5;" />
<path d="M 234.495 200.86 C 239.105 205.09 248.218 213.654 252.722 217.989"
 style=" fill:none; stroke: #000000; stroke-width:0.5;" />
<path d="M 252.722 217.989 C 257.225 222.324 266.171 231.057 270.612 235.454"
 style=" fill:none; stroke: #000000; stroke-width:0.5;" />
<path d="M 270.612 235.454 C 275.054 239.851 283.885 248.697 288.275 253.147"
 style=" fill:none; stroke: #000000; stroke-width:0.5;" />
<path d="M 288.275 253.147 C 292.664 257.596 297.053 262.046 297.053 262.046"
 style=" fill:none; stroke: #000000; stroke-width:0.5;" />
<text x="298.678" y="268.802" style=" stroke:none; fill: #000000; font-family:sans-serif; font-size:10;" transform="matrix(0.691673 0.722211 -0.722211 0.691673 286.222 -132.83)">
45</text>
<path d="M 314.349 280.105 C 314.349 280.105 318.555 284.738 322.761 289.371"
 style=" fill:none; stroke: #000000; stroke-width:0.5;" />
<path d="M 322.761 289.371 C 326.967 294.003 335.066 303.583 338.958 308.529"
 style=" fill:none; stroke: #000000; stroke-width:0.5;" />
<path d="M 338.958 308.529 C 342.851 313.475 343.657 322.416 340.57 326.41"
 style=" fill:none; stroke: #000000; stroke-width:0.5;" />
<path d="M 340.57 326.41 C 337.484 330.404 330.041 338.88 325.685 343.362"
 style=" fill:none; stroke: #000000; stroke-width:0.5;" />
<path d="M 325.685 343.362 C 321.328 347.845 316.972 352.327 316.972 352.327"
 style=" fill:none; stroke: #000000; stroke-width:0.5;" />
<text x="305.902" y="368.162" style=" stroke:none; fill: #000000; font-family:sans-serif; font-size:10;" transform="matrix(0.711959 -0.702221 0.702221 0.711959 -170.419 320.857)">
45</text>
<path d="M 299.172 369.883 C 299.173 369.883 294.408 373.958 289.644 378.032"
 style=" fill:none; stroke: #000000; stroke-width:0.5;" />
<path d="M 289.644 378.032 C 284.879 382.107 277.046 384.548 273.977 382.915"
 style=" fill:none; stroke: #000000; stroke-width:0.5;" />
<path d="M 273.977 382.915 C 270.907 381.282 263.103 375.546 258.368 371.442"
 style=" fill:none; stroke: #000000; stroke-width:0.5;" />
<path d="M 258.368 371.442 C 253.633 367.338 244.339 358.954 239.78 354.674"
 style=" fill:none; stroke: #000000; stroke-width:0.5;" />
<path d="M 239.78 354.674 C 235.221 350.394 230.663 346.114 230.663 346.114"
 style=" fill:none; stroke: #000000; stroke-width:0.5;" />
<text x="214.61" y="335.362" style=" stroke:none; fill: #000000; font-family:sans-serif; font-size:10;" transform="matrix(0.716286 0.697807 -0.697807 0.716286 294.906 -54.6095)">
45</text>
<path d="M 212.754 328.667 C 212.754 328.667 208.331 324.252 203.908 319.836"
 style=" fill:none; stroke: #000000; stroke-width:0.5;" />
<path d="M 203.908 319.836 C 199.485 315.42 190.692 306.535 186.321 302.067"
 style=" fill:none; stroke: #000000; stroke-width:0.5;" />
<path d="M 186.321 302.067 C 181.951 297.598 173.286 288.586 168.991 284.042"
 style=" fill:none; stroke: #000000; stroke-width:0.5;" />
<path d="M 168.991 284.042 C 164.696 279.499 156.26 270.257 152.119 265.559"
 style=" fill:none; stroke: #000000; stroke-width:0.5;" />
<path d="M 152.119 265.559 C 147.978 260.861 143.837 256.163 143.837 256.163"
 style=" fill:none; stroke: #000000; stroke-width:0.5;" />
<text x="129.946" y="242.468" style=" stroke:none; fill: #000000; font-family:sans-serif; font-size:10;" transform="matrix(0.574611 0.818426 -0.818426 0.574611 253.72 -3.20797)">
45</text>
<path d="M 129.254 235.391 C 129.254 235.391 128.329 231.897 127.404 228.402"
 style=" fill:none; stroke: #000000; stroke-width:0.5;" />
<path d="M 127.404 228.402 C 126.479 224.908 127.168 216.74 128.782 212.067"
 style=" fill:none; stroke: #000000; stroke-width:0.5;" />
<path d="M 128.782 212.067 C 130.396 207.394 136.107 197.979 140.205 193.238"
 style=" fill:none; stroke: #000000; stroke-width:0.5;" />
<path d="M 140.205 193.238 C 144.302 188.497 153.485 180.002 158.571 176.248"
 style=" fill:none; stroke: #000000; stroke-width:0.5;" />
<path d="M 158.571 176.248 C 163.656 172.495 172.465 168.045 176.188 167.349"
 style=" fill:none; stroke: #000000; stroke-width:0.5;" />
<path d="M 63.3815 167.726 C 66.2604 169.744 75.1962 174.26 81.253 176.758"
 style=" fill:none; stroke: #000000; stroke-width:0.5;" />
<path d="M 81.253 176.758 C 87.3099 179.257 97.1702 181.139 100.974 180.523"
 style=" fill:none; stroke: #000000; stroke-width:0.5;" />
<path d="M 100.974 180.523 C 104.777 179.907 113.66 175.532 118.739 171.772"
 style=" fill:none; stroke: #000000; stroke-width:0.5;" />
<path d="M 118.739 171.772 C 123.818 168.012 131.952 158.468 135.006 152.684"
 style=" fill:none; stroke: #000000; stroke-width:0.5;" />
<path d="M 135.006 152.684 C 138.061 146.899 140.266 136.051 139.416 130.988"
 style=" fill:none; stroke: #000000; stroke-width:0.5;" />
<path d="M 139.416 130.988 C 138.567 125.924 136.132 118.027 134.547 115.193"
 style=" fill:none; stroke: #000000; stroke-width:0.5;" />
<path d="M 134.547 115.193 C 132.961 112.359 127.567 104.496 123.758 99.4657"
 style=" fill:none; stroke: #000000; stroke-width:0.5;" />
<path d="M 123.758 99.4657 C 119.949 94.4357 116.14 89.4057 116.14 89.4057"
 style=" fill:none; stroke: #000000; stroke-width:0.5;" />
<text x="100.915" y="77.4743" style=" stroke:none; fill: #000000; font-family:sans-serif; font-size:10;" transform="matrix(0.662482 0.749078 -0.749078 0.662482 92.0949 -49.4442)">
60</text>
<path d="M 99.5467 70.6436 C 99.5467 70.6436 95.2372 66.1143 90.9277 61.5849"
 style=" fill:none; stroke: #000000; stroke-width:0.5;" />
<path d="M 90.9277 61.5849 C 86.6182 57.0556 76.1375 80.3171 69.9662 108.108"
 style=" fill:none; stroke: #000000; stroke-width:0.5;" />
<path d="M 69.9662 108.108 C 63.795 135.899 60.5026 165.708 63.3815 167.726"
 style=" fill:none; stroke: #000000; stroke-width:0.5;" />
<path d="M 39.5525 148.315 C 34.8698 144.159 25.661 135.691 21.1348 131.378"
 style=" fill:none; stroke: #000000; stroke-width:0.5;" />
<path d="M 21.1348 131.378 C 16.6087 127.065 21.2913 131.221 30.5002 139.69"
 style=" fill:none; stroke: #000000; stroke-width:0.5;" />
<path d="M 30.5002 139.69 C 39.709 148.159 44.2352 152.472 39.5525 148.315"
 style=" fill:none; stroke: #000000; stroke-width:0.5;" />
<path d="M 257.603 18.954 C 262.035 18.9667 271.865 15.5391 277.264 12.0988"
 style=" fill:none; stroke: #000000; stroke-width:0.5;" />
<path d="M 277.264 12.0988 C 282.662 8.65851 278.23 8.64582 268.4 12.0734"
 style=" fill:none; stroke: #000000; stroke-width:0.5;" />
<path d="M 268.4 12.0734 C 258.569 15.501 253.17 18.9413 257.603 18.954"
 style=" fill:none; stroke: #000000; stroke-width:0.5;" />
<path d="M 231.296 9.60511 C 225.866 6.19631 215.6 -1.21582 210.765 -5.21913"
 style=" fill:none; stroke: #000000; stroke-width:0.5;" />
<path d="M 210.765 -5.21913 C 205.929 -9.22245 196.489 -17.4598 191.884 -21.6938"
 style=" fill:none; stroke: #000000; stroke-width:0.5;" />
<path d="M 191.884 -21.6938 C 187.279 -25.9279 178.201 -34.5273 173.728 -38.8927"
 style=" fill:none; stroke: #000000; stroke-width:0.5;" />
<path d="M 173.728 -38.8927 C 169.254 -43.258 184.125 -31.6119 203.468 -15.6003"
 style=" fill:none; stroke: #000000; stroke-width:0.5;" />
<path d="M 203.468 -15.6003 C 222.812 0.411192 236.726 13.0139 231.296 9.60511"
 style=" fill:none; stroke: #000000; stroke-width:0.5;" />
<path d="M 239.39 106.807 C 241.865 104.863 250.06 101.545 255.78 100.171"
 style=" fill:none; stroke: #000000; stroke-width:0.5;" />
<path d="M 255.78 100.171 C 261.5 98.7978 270.623 98.4407 274.026 99.4571"
 style=" fill:none; stroke: #000000; stroke-width:0.5;" />
<path d="M 274.026 99.4571 C 277.429 100.473 286.176 104.986 291.519 108.481"
 style=" fill:none; stroke: #000000; stroke-width:0.5;" />
<path d="M 291.519 108.481 C 296.862 111.977 307.01 119.506 311.816 123.539"
 style=" fill:none; stroke: #000000; stroke-width:0.5;" />
<path d="M 311.816 123.539 C 316.622 127.573 326.018 135.854 330.608 140.103"
 style=" fill:none; stroke: #000000; stroke-width:0.5;" />
<path d="M 330.608 140.103 C 335.198 144.351 344.254 152.974 348.718 157.348"
 style=" fill:none; stroke: #000000; stroke-width:0.5;" />
<path d="M 348.718 157.348 C 353.183 161.722 362.006 170.576 366.365 175.057"
 style=" fill:none; stroke: #000000; stroke-width:0.5;" />
<path d="M 366.365 175.057 C 370.723 179.537 375.081 184.018 375.081 184.018"
 style=" fill:none; stroke: #000000; stroke-width:0.5;" />
<text x="376.561" y="190.815" style=" stroke:none; fill: #000000; font-family:sans-serif; font-size:10;" transform="matrix(0.675456 0.7374 -0.7374 0.675456 262.918 -215.748)">
60</text>
<path d="M 391.984 202.47 C 391.984 202.47 395.97 207.323 399.957 212.175"
 style=" fill:none; stroke: #000000; stroke-width:0.5;" />
<path d="M 399.957 212.175 C 403.943 217.028 411.279 227.369 414.629 232.859"
 style=" fill:none; stroke: #000000; stroke-width:0.5;" />
<path d="M 414.629 232.859 C 417.978 238.348 419.285 246.392 417.242 248.947"
 style=" fill:none; stroke: #000000; stroke-width:0.5;" />
<path d="M 417.242 248.947 C 415.199 251.502 408.844 258.584 404.532 263.111"
 style=" fill:none; stroke: #000000; stroke-width:0.5;" />
<path d="M 404.532 263.111 C 400.22 267.637 395.908 272.164 395.908 272.164"
 style=" fill:none; stroke: #000000; stroke-width:0.5;" />
<text x="384.678" y="287.887" style=" stroke:none; fill: #000000; font-family:sans-serif; font-size:10;" transform="matrix(0.719004 -0.695006 0.695006 0.719004 -91.9902 348.249)">
60</text>
<path d="M 377.93 289.542 C 377.93 289.542 374.744 292.151 371.558 294.76"
 style=" fill:none; stroke: #000000; stroke-width:0.5;" />
<path d="M 371.558 294.76 C 368.373 297.369 359.656 296.67 354.126 293.362"
 style=" fill:none; stroke: #000000; stroke-width:0.5;" />
<path d="M 354.126 293.362 C 348.595 290.053 338.75 283.253 334.436 279.76"
 style=" fill:none; stroke: #000000; stroke-width:0.5;" />
<path d="M 334.436 279.76 C 330.122 276.267 322.935 270.196 320.061 267.618"
 style=" fill:none; stroke: #000000; stroke-width:0.5;" />
<path d="M 320.061 267.618 C 317.188 265.04 314.315 262.462 314.315 262.462"
 style=" fill:none; stroke: #000000; stroke-width:0.5;" />
<text x="298.123" y="251.916" style=" stroke:none; fill: #000000; font-family:sans-serif; font-size:10;" transform="matrix(0.725251 0.688485 -0.688485 0.725251 255.349 -136.04)">
60</text>
<path d="M 296.178 245.244 C 296.178 245.244 291.751 240.831 287.325 236.419"
 style=" fill:none; stroke: #000000; stroke-width:0.5;" />
<path d="M 287.325 236.419 C 282.898 232.007 274.15 223.077 269.828 218.56"
 style=" fill:none; stroke: #000000; stroke-width:0.5;" />
<path d="M 269.828 218.56 C 265.507 214.043 258.016 206.013 254.847 202.501"
 style=" fill:none; stroke: #000000; stroke-width:0.5;" />
<path d="M 254.847 202.501 C 251.678 198.989 245.543 191.866 242.577 188.255"
 style=" fill:none; stroke: #000000; stroke-width:0.5;" />
<path d="M 242.577 188.255 C 239.611 184.644 236.644 181.033 236.644 181.033"
 style=" fill:none; stroke: #000000; stroke-width:0.5;" />
<text x="223.264" y="166.703" style=" stroke:none; fill: #000000; font-family:sans-serif; font-size:10;" transform="matrix(0.541016 0.841012 -0.841012 0.541016 242.674 -111.254)">
60</text>
<path d="M 222.804 159.518 C 222.804 159.518 221.721 156.182 220.638 152.845"
 style=" fill:none; stroke: #000000; stroke-width:0.5;" />
<path d="M 220.638 152.845 C 219.555 149.509 220.143 140.083 221.813 133.993"
 style=" fill:none; stroke: #000000; stroke-width:0.5;" />
<path d="M 221.813 133.993 C 223.483 127.903 227.475 119.034 229.797 116.255"
 style=" fill:none; stroke: #000000; stroke-width:0.5;" />
<path d="M 229.797 116.255 C 232.118 113.476 236.915 108.752 239.39 106.807"
 style=" fill:none; stroke: #000000; stroke-width:0.5;" />
<path d="M 80.6995 266.315 C 83.3154 264.511 90.8586 261.782 95.7858 260.856"
 style=" fill:none; stroke: #000000; stroke-width:0.5;" />
<path d="M 95.7858 260.856 C 100.713 259.93 110.316 260.694 114.991 262.383"
 style=" fill:none; stroke: #000000; stroke-width:0.5;" />
<path d="M 114.991 262.383 C 119.666 264.073 128.411 268.586 132.481 271.409"
 style=" fill:none; stroke: #000000; stroke-width:0.5;" />
<path d="M 132.481 271.409 C 136.552 274.232 145.417 281.099 150.212 285.143"
 style=" fill:none; stroke: #000000; stroke-width:0.5;" />
<path d="M 150.212 285.143 C 155.008 289.187 164.389 297.483 168.974 301.736"
 style=" fill:none; stroke: #000000; stroke-width:0.5;" />
<path d="M 168.974 301.736 C 173.56 305.989 182.61 314.618 187.073 318.993"
 style=" fill:none; stroke: #000000; stroke-width:0.5;" />
<path d="M 187.073 318.993 C 191.537 323.368 200.36 332.222 204.72 336.701"
 style=" fill:none; stroke: #000000; stroke-width:0.5;" />
<path d="M 204.72 336.701 C 209.08 341.18 213.44 345.659 213.44 345.659"
 style=" fill:none; stroke: #000000; stroke-width:0.5;" />
<text x="214.928" y="352.454" style=" stroke:none; fill: #000000; font-family:sans-serif; font-size:10;" transform="matrix(0.67632 0.736608 -0.736608 0.67632 329.188 -44.2354)">
60</text>
<path d="M 230.364 364.091 C 230.364 364.091 234.362 368.931 238.36 373.772"
 style=" fill:none; stroke: #000000; stroke-width:0.5;" />
<path d="M 238.36 373.772 C 242.358 378.613 248.636 386.815 250.916 390.176"
 style=" fill:none; stroke: #000000; stroke-width:0.5;" />
<path d="M 250.916 390.176 C 253.197 393.537 255.079 400.92 254.681 404.941"
 style=" fill:none; stroke: #000000; stroke-width:0.5;" />
<path d="M 254.681 404.941 C 254.284 408.963 249.614 417.551 245.341 422.118"
 style=" fill:none; stroke: #000000; stroke-width:0.5;" />
<path d="M 245.341 422.118 C 241.069 426.684 236.797 431.251 236.797 431.251"
 style=" fill:none; stroke: #000000; stroke-width:0.5;" />
<text x="225.665" y="447.042" style=" stroke:none; fill: #000000; font-family:sans-serif; font-size:10;" transform="matrix(0.714692 -0.699439 0.699439 0.714692 -248.295 285.384)">
60</text>
<path d="M 218.928 448.738 C 218.928 448.738 215.098 451.943 211.267 455.148"
 style=" fill:none; stroke: #000000; stroke-width:0.5;" />
<path d="M 211.267 455.148 C 207.437 458.353 199.721 459.476 195.835 457.393"
 style=" fill:none; stroke: #000000; stroke-width:0.5;" />
<path d="M 195.835 457.393 C 191.949 455.311 184.296 449.705 180.529 446.182"
 style=" fill:none; stroke: #000000; stroke-width:0.5;" />
<path d="M 180.529 446.182 C 176.762 442.66 168.505 434.788 164.015 430.44"
 style=" fill:none; stroke: #000000; stroke-width:0.5;" />
<path d="M 164.015 430.44 C 159.525 426.091 155.035 421.742 155.035 421.742"
 style=" fill:none; stroke: #000000; stroke-width:0.5;" />
<text x="139.052" y="410.888" style=" stroke:none; fill: #000000; font-family:sans-serif; font-size:10;" transform="matrix(0.711782 0.702401 -0.702401 0.711782 328.685 20.7551)">
60</text>
<path d="M 137.24 404.182 C 137.24 404.182 132.818 399.764 128.397 395.347"
 style=" fill:none; stroke: #000000; stroke-width:0.5;" />
<path d="M 128.397 395.347 C 123.976 390.929 115.16 382.067 110.766 377.623"
 style=" fill:none; stroke: #000000; stroke-width:0.5;" />
<path d="M 110.766 377.623 C 106.371 373.178 97.6204 364.251 93.2641 359.769"
 style=" fill:none; stroke: #000000; stroke-width:0.5;" />
<path d="M 93.2641 359.769 C 88.9079 355.286 80.3915 346.372 76.2313 341.94"
 style=" fill:none; stroke: #000000; stroke-width:0.5;" />
<path d="M 76.2313 341.94 C 72.0712 337.508 67.9111 333.076 67.9111 333.076"
 style=" fill:none; stroke: #000000; stroke-width:0.5;" />
<text x="58.299" y="323.173" style=" stroke:none; fill: #000000; font-family:sans-serif; font-size:10;" transform="matrix(0.491733 0.870746 -0.870746 0.491733 311.033 113.495)">
60</text>
<path d="M 61.1747 321.148 C 61.1747 321.148 60.0084 316.86 58.8421 312.572"
 style=" fill:none; stroke: #000000; stroke-width:0.5;" />
<path d="M 58.8421 312.572 C 57.6758 308.285 58.3826 298.739 60.2557 293.481"
 style=" fill:none; stroke: #000000; stroke-width:0.5;" />
<path d="M 60.2557 293.481 C 62.1287 288.223 66.8683 279.704 69.7347 276.444"
 style=" fill:none; stroke: #000000; stroke-width:0.5;" />
<path d="M 69.7347 276.444 C 72.6012 273.183 78.0836 268.119 80.6995 266.315"
 style=" fill:none; stroke: #000000; stroke-width:0.5;" />
<path d="M 194.531 -36.3589 C 197.805 -33.6243 206.362 -27.333 211.644 -23.7763"
 style=" fill:none; stroke: #000000; stroke-width:0.5;" />
<path d="M 211.644 -23.7763 C 216.926 -20.2196 226.156 -14.8699 230.103 -13.0768"
 style=" fill:none; stroke: #000000; stroke-width:0.5;" />
<path d="M 230.103 -13.0768 C 234.05 -11.2838 242.52 -9.38671 247.043 -9.28272"
 style=" fill:none; stroke: #000000; stroke-width:0.5;" />
<path d="M 247.043 -9.28272 C 251.567 -9.17873 239.063 -17.263 222.036 -25.4514"
 style=" fill:none; stroke: #000000; stroke-width:0.5;" />
<path d="M 222.036 -25.4514 C 205.009 -33.6397 191.256 -39.0934 194.531 -36.3589"
 style=" fill:none; stroke: #000000; stroke-width:0.5;" />
<path d="M 61.9573 145.064 C 67.3284 147.794 76.4838 151.159 80.2682 151.794"
 style=" fill:none; stroke: #000000; stroke-width:0.5;" />
<path d="M 80.2682 151.794 C 84.0525 152.429 92.8721 150.631 97.9074 148.199"
 style=" fill:none; stroke: #000000; stroke-width:0.5;" />
<path d="M 97.9074 148.199 C 102.943 145.766 109.218 139.491 110.458 135.648"
 style=" fill:none; stroke: #000000; stroke-width:0.5;" />
<path d="M 110.458 135.648 C 111.698 131.806 111.942 123.211 110.947 118.46"
 style=" fill:none; stroke: #000000; stroke-width:0.5;" />
<path d="M 110.947 118.46 C 109.951 113.708 106.154 104.246 103.353 99.5369"
 style=" fill:none; stroke: #000000; stroke-width:0.5;" />
<path d="M 103.353 99.5369 C 100.552 94.8274 93.8595 85.1696 89.969 80.2213"
 style=" fill:none; stroke: #000000; stroke-width:0.5;" />
<path d="M 89.969 80.2213 C 86.0784 75.273 77.9227 65.7511 73.6574 61.1775"
 style=" fill:none; stroke: #000000; stroke-width:0.5;" />
<path d="M 73.6574 61.1775 C 69.3922 56.604 61.649 73.9236 58.171 95.8169"
 style=" fill:none; stroke: #000000; stroke-width:0.5;" />
<path d="M 58.171 95.8169 C 54.693 117.71 56.5862 142.333 61.9573 145.064"
 style=" fill:none; stroke: #000000; stroke-width:0.5;" />
<path d="M 39.6641 130.526 C 34.7605 126.591 25.2965 118.377 20.736 114.099"
 style=" fill:none; stroke: #000000; stroke-width:0.5;" />
<path d="M 20.736 114.099 C 16.1754 109.821 21.0789 113.756 30.543 121.97"
 style=" fill:none; stroke: #000000; stroke-width:0.5;" />
<path d="M 30.543 121.97 C 40.007 130.183 44.5676 134.462 39.6641 130.526"
 style=" fill:none; stroke: #000000; stroke-width:0.5;" />
<path d="M 277.013 126.753 C 281.934 127.254 290.302 129.494 293.75 131.232"
 style=" fill:none; stroke: #000000; stroke-width:0.5;" />
<path d="M 293.75 131.232 C 297.198 132.971 305.848 138.346 311.051 141.982"
 style=" fill:none; stroke: #000000; stroke-width:0.5;" />
<path d="M 311.051 141.982 C 316.253 145.619 326.183 153.366 330.912 157.476"
 style=" fill:none; stroke: #000000; stroke-width:0.5;" />
<path d="M 330.912 157.476 C 335.64 161.587 344.766 170.139 349.163 174.581"
 style=" fill:none; stroke: #000000; stroke-width:0.5;" />
<path d="M 349.163 174.581 C 353.56 179.023 362.013 188.248 366.069 193.03"
 style=" fill:none; stroke: #000000; stroke-width:0.5;" />
<path d="M 366.069 193.03 C 370.125 197.813 377.723 207.893 381.265 213.189"
 style=" fill:none; stroke: #000000; stroke-width:0.5;" />
<path d="M 381.265 213.189 C 384.808 218.485 389.734 226.817 391.118 229.853"
 style=" fill:none; stroke: #000000; stroke-width:0.5;" />
<path d="M 391.118 229.853 C 392.502 232.889 394.294 240.468 394.703 245.012"
 style=" fill:none; stroke: #000000; stroke-width:0.5;" />
<path d="M 394.703 245.012 C 395.112 249.555 395.521 254.099 395.521 254.099"
 style=" fill:none; stroke: #000000; stroke-width:0.5;" />
<text x="385.813" y="270.847" style=" stroke:none; fill: #000000; font-family:sans-serif; font-size:10;" transform="matrix(0.649636 -0.760246 0.760246 0.649636 -70.7353 388.208)">
75</text>
<path d="M 379.23 273.164 C 379.23 273.164 375.046 273.399 370.862 273.635"
 style=" fill:none; stroke: #000000; stroke-width:0.5;" />
<path d="M 370.862 273.635 C 366.678 273.87 358.136 272.347 353.778 270.588"
 style=" fill:none; stroke: #000000; stroke-width:0.5;" />
<path d="M 353.778 270.588 C 349.419 268.83 340.005 263.835 334.95 260.599"
 style=" fill:none; stroke: #000000; stroke-width:0.5;" />
<path d="M 334.95 260.599 C 329.894 257.364 322.121 251.878 319.404 249.629"
 style=" fill:none; stroke: #000000; stroke-width:0.5;" />
<path d="M 319.404 249.629 C 316.687 247.379 313.97 245.129 313.97 245.129"
 style=" fill:none; stroke: #000000; stroke-width:0.5;" />
<text x="297.672" y="234.74" style=" stroke:none; fill: #000000; font-family:sans-serif; font-size:10;" transform="matrix(0.731975 0.681332 -0.681332 0.731975 239.719 -139.897)">
75</text>
<path d="M 295.659 228.085 C 295.659 228.085 291.357 223.548 287.055 219.011"
 style=" fill:none; stroke: #000000; stroke-width:0.5;" />
<path d="M 287.055 219.011 C 282.753 214.474 275.653 206.589 272.853 203.241"
 style=" fill:none; stroke: #000000; stroke-width:0.5;" />
<path d="M 272.853 203.241 C 270.054 199.893 264.424 192.265 261.592 187.986"
 style=" fill:none; stroke: #000000; stroke-width:0.5;" />
<path d="M 261.592 187.986 C 258.76 183.706 253.723 174.25 251.518 169.074"
 style=" fill:none; stroke: #000000; stroke-width:0.5;" />
<path d="M 251.518 169.074 C 249.313 163.897 247.108 158.72 247.108 158.72"
 style=" fill:none; stroke: #000000; stroke-width:0.5;" />
<text x="250.711" y="157.056" style=" stroke:none; fill: #000000; font-family:sans-serif; font-size:10;" transform="matrix(0.0577437 -0.998331 0.998331 0.0577437 79.4401 398.28)">
75</text>
<path d="M 248.075 142.009 C 248.075 142.009 252.849 137.945 257.624 133.88"
 style=" fill:none; stroke: #000000; stroke-width:0.5;" />
<path d="M 257.624 133.88 C 262.398 129.816 272.093 126.252 277.013 126.753"
 style=" fill:none; stroke: #000000; stroke-width:0.5;" />
<path d="M 118.612 288.644 C 122.903 289.564 130.195 291.902 133.195 293.322"
 style=" fill:none; stroke: #000000; stroke-width:0.5;" />
<path d="M 133.195 293.322 C 136.195 294.741 144.345 299.849 149.495 303.538"
 style=" fill:none; stroke: #000000; stroke-width:0.5;" />
<path d="M 149.495 303.538 C 154.645 307.227 164.502 315.047 169.21 319.178"
 style=" fill:none; stroke: #000000; stroke-width:0.5;" />
<path d="M 169.21 319.178 C 173.918 323.309 183.024 331.88 187.423 336.321"
 style=" fill:none; stroke: #000000; stroke-width:0.5;" />
<path d="M 187.423 336.321 C 191.821 340.761 200.3 349.96 204.38 354.719"
 style=" fill:none; stroke: #000000; stroke-width:0.5;" />
<path d="M 204.38 354.719 C 208.46 359.477 216.142 369.474 219.743 374.711"
 style=" fill:none; stroke: #000000; stroke-width:0.5;" />
<path d="M 219.743 374.711 C 223.344 379.949 228.195 388.356 229.445 391.526"
 style=" fill:none; stroke: #000000; stroke-width:0.5;" />
<path d="M 229.445 391.526 C 230.695 394.695 232.426 401.804 232.906 405.742"
 style=" fill:none; stroke: #000000; stroke-width:0.5;" />
<path d="M 232.906 405.742 C 233.387 409.681 233.867 413.62 233.867 413.62"
 style=" fill:none; stroke: #000000; stroke-width:0.5;" />
<text x="226.845" y="430.768" style=" stroke:none; fill: #000000; font-family:sans-serif; font-size:10;" transform="matrix(0.546912 -0.83719 0.83719 0.546912 -257.854 385.088)">
75</text>
<path d="M 221.073 433.205 C 221.073 433.205 217.458 434.01 213.843 434.814"
 style=" fill:none; stroke: #000000; stroke-width:0.5;" />
<path d="M 213.843 434.814 C 210.228 435.619 200.77 434.541 194.926 432.658"
 style=" fill:none; stroke: #000000; stroke-width:0.5;" />
<path d="M 194.926 432.658 C 189.082 430.776 180.497 427.215 177.756 425.537"
 style=" fill:none; stroke: #000000; stroke-width:0.5;" />
<path d="M 177.756 425.537 C 175.015 423.859 167.326 418.29 162.378 414.399"
 style=" fill:none; stroke: #000000; stroke-width:0.5;" />
<path d="M 162.378 414.399 C 157.429 410.508 152.481 406.618 152.481 406.618"
 style=" fill:none; stroke: #000000; stroke-width:0.5;" />
<text x="136.164" y="396.258" style=" stroke:none; fill: #000000; font-family:sans-serif; font-size:10;" transform="matrix(0.73321 0.680002 -0.680002 0.73321 305.783 13.1259)">
75</text>
<path d="M 134.138 389.605 C 134.138 389.605 129.842 385.062 125.547 380.519"
 style=" fill:none; stroke: #000000; stroke-width:0.5;" />
<path d="M 125.547 380.519 C 121.251 375.976 113.002 366.547 109.049 361.661"
 style=" fill:none; stroke: #000000; stroke-width:0.5;" />
<path d="M 109.049 361.661 C 105.096 356.775 99.3638 349.25 97.5841 346.61"
 style=" fill:none; stroke: #000000; stroke-width:0.5;" />
<path d="M 97.5841 346.61 C 95.8044 343.97 91.7223 334.794 89.4199 328.258"
 style=" fill:none; stroke: #000000; stroke-width:0.5;" />
<path d="M 89.4199 328.258 C 87.1175 321.721 84.815 315.185 84.815 315.185"
 style=" fill:none; stroke: #000000; stroke-width:0.5;" />
<text x="88.4857" y="314.75" style=" stroke:none; fill: #000000; font-family:sans-serif; font-size:10;" transform="matrix(0.20785 -0.978161 0.978161 0.20785 -237.782 335.882)">
75</text>
<path d="M 88.0113 300.143 C 88.0113 300.143 93.5157 296.809 99.0201 293.474"
 style=" fill:none; stroke: #000000; stroke-width:0.5;" />
<path d="M 99.0201 293.474 C 104.525 290.14 114.32 287.725 118.612 288.644"
 style=" fill:none; stroke: #000000; stroke-width:0.5;" />
</svg>
