<?xml version="1.0" standalone="no"?>
<!DOCTYPE svg PUBLIC "-//W3C//DTD SVG 1.1//EN"
"http://www.w3.org/Graphics/SVG/1.1/DTD/svg11.dtd">
<svg viewBox="0 0 400 400" version="1.1"
xmlns="http://www.w3.org/2000/svg" xmlns:xlink="http://www.w3.org/1999/xlink">
<rect x="0" y="0" width="400" height="400" style="stroke:none; fill:#ffffff;" />
<image x="0" y="0" width="32" height="32" xlink:href="ContourTransform-1.png" transform="matrix(12.5 0 0 12.5 0 0)" />
<path d="M 313.295 21.1442 C 313.692 16.8221 313.693 16.8221 313.295 21.1442"
 style=" fill:none; stroke: #000000; stroke-width:0.5;" />
<path d="M 313.295 21.1442 C 312.897 25.4663 312.897 25.4663 313.295 21.1442"
 style=" fill:none; stroke: #000000; stroke-width:0.5;" />
<path d="M 306.088 50 C 303.67 56.25 297.814 64.8938 294.376 67.2876"
 style=" fill:none; stroke: #000000; stroke-width:0.5;" />
<path d="M 294.376 67.2876 C 290.938 69.6814 283.33 69.6814 279.161 67.2876"
 style=" fill:none; stroke: #000000; stroke-width:0.5;" />
<path d="M 279.161 67.2876 C 274.991 64.8938 268.741 58.4473 266.661 54.3946"
 style=" fill:none; stroke: #000000; stroke-width:0.5;" />
<path d="M 266.661 54.3946 C 264.58 50.3418 261.542 40.9668 260.584 35.6445"
 style=" fill:none; stroke: #000000; stroke-width:0.5;" />
<path d="M 260.584 35.6445 C 259.627 30.3223 258.669 25 258.669 25"
 style=" fill:none; stroke: #000000; stroke-width:0.5;" />
<text x="254.21" y="7.70026" style=" stroke:none; fill: #000000; font-family:sans-serif; font-size:10;" transform="matrix(0.0550512 0.998484 -0.998484 0.0550512 247.904 -246.548)">
15</text>
<path d="M 257.29 1.5521e-06 C 257.29 2.02817e-06 270.698 9.375 284.107 18.75"
 style=" fill:none; stroke: #000000; stroke-width:0.5;" />
<path d="M 284.107 18.75 C 297.515 28.125 308.505 43.75 306.088 50"
 style=" fill:none; stroke: #000000; stroke-width:0.5;" />
<path d="M 78.5025 48.3744 C 80.2537 42.9372 82.8572 31.25 83.7095 25"
 style=" fill:none; stroke: #000000; stroke-width:0.5;" />
<path d="M 83.7095 25 C 84.5617 18.75 82.8105 24.1872 80.207 35.8744"
 style=" fill:none; stroke: #000000; stroke-width:0.5;" />
<path d="M 80.207 35.8744 C 77.6035 47.5616 76.7512 53.8116 78.5025 48.3744"
 style=" fill:none; stroke: #000000; stroke-width:0.5;" />
<path d="M 61.1231 66.4338 C 55.5615 68.4007 46.875 66.7094 43.75 63.0511"
 style=" fill:none; stroke: #000000; stroke-width:0.5;" />
<path d="M 43.75 63.0511 C 40.625 59.3928 36.189 51.1759 34.878 46.6173"
 style=" fill:none; stroke: #000000; stroke-width:0.5;" />
<path d="M 34.878 46.6173 C 33.567 42.0586 31.4533 31.25 30.6505 25"
 style=" fill:none; stroke: #000000; stroke-width:0.5;" />
<path d="M 30.6505 25 C 29.8478 18.75 39.8453 25 50.6456 37.5"
 style=" fill:none; stroke: #000000; stroke-width:0.5;" />
<path d="M 50.6456 37.5 C 61.4459 50 66.6846 64.4669 61.1231 66.4338"
 style=" fill:none; stroke: #000000; stroke-width:0.5;" />
<path d="M 382.673 228.414 C 380.259 232.957 376.949 240.625 376.052 243.75"
 style=" fill:none; stroke: #000000; stroke-width:0.5;" />
<path d="M 376.052 243.75 C 375.156 246.875 373.622 256.25 372.985 262.5"
 style=" fill:none; stroke: #000000; stroke-width:0.5;" />
<path d="M 372.985 262.5 C 372.348 268.75 371.757 281.25 371.804 287.5"
 style=" fill:none; stroke: #000000; stroke-width:0.5;" />
<path d="M 371.804 287.5 C 371.85 293.75 372.646 306.25 373.395 312.5"
 style=" fill:none; stroke: #000000; stroke-width:0.5;" />
<path d="M 373.395 312.5 C 374.144 318.75 374.893 325 374.893 325"
 style=" fill:none; stroke: #000000; stroke-width:0.5;" />
<text x="372.136" y="327.702" style=" stroke:none; fill: #000000; font-family:sans-serif; font-size:10;" transform="matrix(0.333233 0.942845 -0.942845 0.333233 557.1 -132.366)">
15</text>
<path d="M 379.311 337.5 C 379.311 337.5 381.359 341.176 383.406 344.852"
 style=" fill:none; stroke: #000000; stroke-width:0.5;" />
<path d="M 383.406 344.852 C 385.453 348.527 387.5 318.984 387.5 285.765"
 style=" fill:none; stroke: #000000; stroke-width:0.5;" />
<path d="M 387.5 285.765 C 387.5 252.546 385.086 223.87 382.673 228.414"
 style=" fill:none; stroke: #000000; stroke-width:0.5;" />
<path d="M 190.44 230.507 C 191.91 234.003 194.776 243.75 196.172 250"
 style=" fill:none; stroke: #000000; stroke-width:0.5;" />
<path d="M 196.172 250 C 197.567 256.25 199.247 265.625 199.531 268.75"
 style=" fill:none; stroke: #000000; stroke-width:0.5;" />
<path d="M 199.531 268.75 C 199.815 271.875 200.074 280.667 200.05 286.334"
 style=" fill:none; stroke: #000000; stroke-width:0.5;" />
<path d="M 200.05 286.334 C 200.025 292.001 199.613 301.376 199.226 305.084"
 style=" fill:none; stroke: #000000; stroke-width:0.5;" />
<path d="M 199.226 305.084 C 198.839 308.792 198.451 312.5 198.451 312.5"
 style=" fill:none; stroke: #000000; stroke-width:0.5;" />
<text x="197.455" y="330.706" style=" stroke:none; fill: #000000; font-family:sans-serif; font-size:10;" transform="matrix(0.245316 -0.969443 0.969443 0.245316 -171.584 441)">
15</text>
<path d="M 192.125 337.5 C 192.125 337.5 190.401 340.625 188.677 343.75"
 style=" fill:none; stroke: #000000; stroke-width:0.5;" />
<path d="M 188.677 343.75 C 186.953 346.875 179.546 351.26 173.864 352.521"
 style=" fill:none; stroke: #000000; stroke-width:0.5;" />
<path d="M 173.864 352.521 C 168.182 353.781 159.375 350.669 156.25 346.296"
 style=" fill:none; stroke: #000000; stroke-width:0.5;" />
<path d="M 156.25 346.296 C 153.125 341.924 149.196 334.413 148.392 331.276"
 style=" fill:none; stroke: #000000; stroke-width:0.5;" />
<path d="M 148.392 331.276 C 147.588 328.138 146.784 325 146.784 325"
 style=" fill:none; stroke: #000000; stroke-width:0.5;" />
<text x="141.015" y="308" style=" stroke:none; fill: #000000; font-family:sans-serif; font-size:10;" transform="matrix(0.130523 0.991445 -0.991445 0.130523 427.974 127.99)">
15</text>
<path d="M 143.492 300 C 143.492 300 143.441 293.75 143.391 287.5"
 style=" fill:none; stroke: #000000; stroke-width:0.5;" />
<path d="M 143.391 287.5 C 143.34 281.25 143.989 268.75 144.688 262.5"
 style=" fill:none; stroke: #000000; stroke-width:0.5;" />
<path d="M 144.688 262.5 C 145.388 256.25 147.066 246.033 148.044 242.067"
 style=" fill:none; stroke: #000000; stroke-width:0.5;" />
<path d="M 148.044 242.067 C 149.022 238.1 153.125 229.692 156.25 225.251"
 style=" fill:none; stroke: #000000; stroke-width:0.5;" />
<path d="M 156.25 225.251 C 159.375 220.809 162.5 216.368 162.5 216.368"
 style=" fill:none; stroke: #000000; stroke-width:0.5;" />
<text x="169.231" y="221.932" style=" stroke:none; fill: #000000; font-family:sans-serif; font-size:10;" transform="matrix(0.961501 0.274802 -0.274802 0.961501 67.5026 -37.9609)">
15</text>
<path d="M 187.5 223.513 C 187.5 223.513 188.97 227.01 190.44 230.507"
 style=" fill:none; stroke: #000000; stroke-width:0.5;" />
<path d="M 325.67 44.0717 C 326.005 40.7858 326.656 31.25 326.971 25"
 style=" fill:none; stroke: #000000; stroke-width:0.5;" />
<path d="M 326.971 25 C 327.287 18.75 326.952 22.0358 326.301 31.5717"
 style=" fill:none; stroke: #000000; stroke-width:0.5;" />
<path d="M 326.301 31.5717 C 325.651 41.1075 325.335 47.3575 325.67 44.0717"
 style=" fill:none; stroke: #000000; stroke-width:0.5;" />
<path d="M 318.642 75 C 316.531 81.25 311.546 90.625 308.672 93.75"
 style=" fill:none; stroke: #000000; stroke-width:0.5;" />
<path d="M 308.672 93.75 C 305.799 96.875 299.069 101.323 295.212 102.647"
 style=" fill:none; stroke: #000000; stroke-width:0.5;" />
<path d="M 295.212 102.647 C 291.356 103.97 282.833 103.97 278.166 102.647"
 style=" fill:none; stroke: #000000; stroke-width:0.5;" />
<path d="M 278.166 102.647 C 273.499 101.323 265.941 96.875 263.05 93.75"
 style=" fill:none; stroke: #000000; stroke-width:0.5;" />
<path d="M 263.05 93.75 C 260.159 90.625 255.451 83.009 253.634 78.5181"
 style=" fill:none; stroke: #000000; stroke-width:0.5;" />
<path d="M 253.634 78.5181 C 251.817 74.0271 250 69.5361 250 69.5361"
 style=" fill:none; stroke: #000000; stroke-width:0.5;" />
<text x="243.693" y="53.9773" style=" stroke:none; fill: #000000; font-family:sans-serif; font-size:10;" transform="matrix(0.174226 0.984706 -0.984706 0.174226 254.387 -195.393)">
30</text>
<path d="M 246.543 50 C 246.543 50 246.008 43.75 245.473 37.5"
 style=" fill:none; stroke: #000000; stroke-width:0.5;" />
<path d="M 245.473 37.5 C 244.938 31.25 244.247 18.75 244.091 12.5"
 style=" fill:none; stroke: #000000; stroke-width:0.5;" />
<path d="M 244.091 12.5 C 243.935 6.25 263.55 15.625 283.322 31.25"
 style=" fill:none; stroke: #000000; stroke-width:0.5;" />
<path d="M 283.322 31.25 C 303.093 46.875 320.753 68.75 318.642 75"
 style=" fill:none; stroke: #000000; stroke-width:0.5;" />
<path d="M 90.8341 73.6076 C 92.5011 68.0538 95.043 56.25 95.9178 50"
 style=" fill:none; stroke: #000000; stroke-width:0.5;" />
<path d="M 95.9178 50 C 96.7925 43.75 98.022 31.25 98.3766 25"
 style=" fill:none; stroke: #000000; stroke-width:0.5;" />
<path d="M 98.3766 25 C 98.7313 18.75 96.1894 30.5538 93.293 48.6076"
 style=" fill:none; stroke: #000000; stroke-width:0.5;" />
<path d="M 93.293 48.6076 C 90.3965 66.6614 89.167 79.1614 90.8341 73.6076"
 style=" fill:none; stroke: #000000; stroke-width:0.5;" />
<path d="M 80.4181 93.7715 C 77.709 96.9073 68.75 101.174 62.5 102.304"
 style=" fill:none; stroke: #000000; stroke-width:0.5;" />
<path d="M 62.5 102.304 C 56.25 103.435 46.875 103.096 43.75 101.627"
 style=" fill:none; stroke: #000000; stroke-width:0.5;" />
<path d="M 43.75 101.627 C 40.625 100.158 34.375 94.1763 31.25 89.6639"
 style=" fill:none; stroke: #000000; stroke-width:0.5;" />
<path d="M 31.25 89.6639 C 28.125 85.1515 23.7717 76.1044 22.5434 71.5696"
 style=" fill:none; stroke: #000000; stroke-width:0.5;" />
<path d="M 22.5434 71.5696 C 21.3151 67.0348 19.2374 56.25 18.388 50"
 style=" fill:none; stroke: #000000; stroke-width:0.5;" />
<path d="M 18.388 50 C 17.5385 43.75 16.6891 37.5 16.6891 37.5"
 style=" fill:none; stroke: #000000; stroke-width:0.5;" />
<text x="12.1481" y="18.7024" style=" stroke:none; fill: #000000; font-family:sans-serif; font-size:10;" transform="matrix(0.0550141 0.998486 -0.998486 0.0550141 30.1539 5.5438)">
30</text>
<path d="M 15.3117 12.5 C 15.3117 12.5 32.9428 31.25 50.5739 50"
 style=" fill:none; stroke: #000000; stroke-width:0.5;" />
<path d="M 50.5739 50 C 68.205 68.75 83.1271 90.6358 80.4181 93.7715"
 style=" fill:none; stroke: #000000; stroke-width:0.5;" />
<path d="M 381.25 187.651 C 378.125 190.049 372.636 197.46 370.271 202.473"
 style=" fill:none; stroke: #000000; stroke-width:0.5;" />
<path d="M 370.271 202.473 C 367.907 207.487 364.736 215.625 363.928 218.75"
 style=" fill:none; stroke: #000000; stroke-width:0.5;" />
<path d="M 363.928 218.75 C 363.121 221.875 361.565 231.25 360.817 237.5"
 style=" fill:none; stroke: #000000; stroke-width:0.5;" />
<path d="M 360.817 237.5 C 360.069 243.75 359.025 256.25 358.729 262.5"
 style=" fill:none; stroke: #000000; stroke-width:0.5;" />
<path d="M 358.729 262.5 C 358.434 268.75 358.16 281.25 358.181 287.5"
 style=" fill:none; stroke: #000000; stroke-width:0.5;" />
<path d="M 358.181 287.5 C 358.203 293.75 358.224 300 358.224 300"
 style=" fill:none; stroke: #000000; stroke-width:0.5;" />
<text x="355.064" y="306.204" style=" stroke:none; fill: #000000; font-family:sans-serif; font-size:10;" transform="matrix(0.0555126 0.998458 -0.998458 0.0555126 641.085 -65.3107)">
30</text>
<path d="M 359.614 325 C 359.614 325 360.336 330.576 361.057 336.152"
 style=" fill:none; stroke: #000000; stroke-width:0.5;" />
<path d="M 361.057 336.152 C 361.779 341.728 363.563 351.103 364.626 354.902"
 style=" fill:none; stroke: #000000; stroke-width:0.5;" />
<path d="M 364.626 354.902 C 365.689 358.701 368.814 366.625 370.876 370.749"
 style=" fill:none; stroke: #000000; stroke-width:0.5;" />
<path d="M 370.876 370.749 C 372.938 374.874 378.125 381.149 381.25 383.299"
 style=" fill:none; stroke: #000000; stroke-width:0.5;" />
<path d="M 381.25 383.299 C 384.375 385.45 387.5 387.601 387.5 387.601"
 style=" fill:none; stroke: #000000; stroke-width:0.5;" />
<text x="384" y="278.727" style=" stroke:none; fill: #000000; font-family:sans-serif; font-size:10;" transform="matrix(7.54979e-08 1 -1 7.54979e-08 662.727 -105.273)">
30</text>
<path d="M 387.5 357.601 C 387.5 270.227 384.375 185.252 381.25 187.651"
 style=" fill:none; stroke: #000000; stroke-width:0.5;" />
<path d="M 193.75 191.121 C 196.875 194.374 201.453 201.345 202.906 205.063"
 style=" fill:none; stroke: #000000; stroke-width:0.5;" />
<path d="M 202.906 205.063 C 204.359 208.782 207.081 218.75 208.349 225"
 style=" fill:none; stroke: #000000; stroke-width:0.5;" />
<path d="M 208.349 225 C 209.618 231.25 211.29 241.459 211.693 245.419"
 style=" fill:none; stroke: #000000; stroke-width:0.5;" />
<path d="M 211.693 245.419 C 212.097 249.378 212.735 258.753 212.97 264.169"
 style=" fill:none; stroke: #000000; stroke-width:0.5;" />
<path d="M 212.97 264.169 C 213.204 269.584 213.419 281.25 213.398 287.5"
 style=" fill:none; stroke: #000000; stroke-width:0.5;" />
<path d="M 213.398 287.5 C 213.377 293.75 213.356 300 213.356 300"
 style=" fill:none; stroke: #000000; stroke-width:0.5;" />
<text x="216.115" y="315.649" style=" stroke:none; fill: #000000; font-family:sans-serif; font-size:10;" transform="matrix(0.0475625 -0.998868 0.998868 0.0475625 -109.456 516.506)">
30</text>
<path d="M 212.5 317.979 C 212.5 317.979 211.97 322.859 211.441 327.739"
 style=" fill:none; stroke: #000000; stroke-width:0.5;" />
<path d="M 211.441 327.739 C 210.911 332.62 208.959 343.75 207.537 350"
 style=" fill:none; stroke: #000000; stroke-width:0.5;" />
<path d="M 207.537 350 C 206.114 356.25 203.314 365.625 201.937 368.75"
 style=" fill:none; stroke: #000000; stroke-width:0.5;" />
<path d="M 201.937 368.75 C 200.56 371.875 195.831 378.125 192.479 381.25"
 style=" fill:none; stroke: #000000; stroke-width:0.5;" />
<path d="M 192.479 381.25 C 189.127 384.375 185.775 387.5 185.775 387.5"
 style=" fill:none; stroke: #000000; stroke-width:0.5;" />
<text x="167.669" y="391.163" style=" stroke:none; fill: #000000; font-family:sans-serif; font-size:10;" transform="matrix(0.99996 -0.0089927 0.0089927 0.99996 -3.51091 1.52344)">
30</text>
<path d="M 162.5 387.709 C 162.5 387.709 159.375 386.486 156.25 385.262"
 style=" fill:none; stroke: #000000; stroke-width:0.5;" />
<path d="M 156.25 385.262 C 153.125 384.038 146.961 377.736 143.922 372.657"
 style=" fill:none; stroke: #000000; stroke-width:0.5;" />
<path d="M 143.922 372.657 C 140.883 367.579 137.045 359.375 136.246 356.25"
 style=" fill:none; stroke: #000000; stroke-width:0.5;" />
<path d="M 136.246 356.25 C 135.447 353.125 133.773 343.75 132.898 337.5"
 style=" fill:none; stroke: #000000; stroke-width:0.5;" />
<path d="M 132.898 337.5 C 132.022 331.25 131.146 325 131.146 325"
 style=" fill:none; stroke: #000000; stroke-width:0.5;" />
<text x="126.549" y="306.214" style=" stroke:none; fill: #000000; font-family:sans-serif; font-size:10;" transform="matrix(0.0579763 0.998318 -0.998318 0.0579763 424.911 162.125)">
30</text>
<path d="M 129.694 300 C 129.694 300 129.672 293.75 129.65 287.5"
 style=" fill:none; stroke: #000000; stroke-width:0.5;" />
<path d="M 129.65 287.5 C 129.627 281.25 129.913 268.75 130.222 262.5"
 style=" fill:none; stroke: #000000; stroke-width:0.5;" />
<path d="M 130.222 262.5 C 130.531 256.25 131.621 243.75 132.403 237.5"
 style=" fill:none; stroke: #000000; stroke-width:0.5;" />
<path d="M 132.403 237.5 C 133.184 231.25 134.849 221.234 135.733 217.468"
 style=" fill:none; stroke: #000000; stroke-width:0.5;" />
<path d="M 135.733 217.468 C 136.616 213.701 137.5 209.935 137.5 209.935"
 style=" fill:none; stroke: #000000; stroke-width:0.5;" />
<text x="143.493" y="206.615" style=" stroke:none; fill: #000000; font-family:sans-serif; font-size:10;" transform="matrix(0.504452 -0.86344 0.86344 0.504452 -107.292 226.285)">
30</text>
<path d="M 150 188.54 C 150 188.54 153.125 186.807 156.25 185.074"
 style=" fill:none; stroke: #000000; stroke-width:0.5;" />
<path d="M 156.25 185.074 C 159.375 183.342 168.75 182.361 175 183.112"
 style=" fill:none; stroke: #000000; stroke-width:0.5;" />
<path d="M 175 183.112 C 181.25 183.864 190.625 187.868 193.75 191.121"
 style=" fill:none; stroke: #000000; stroke-width:0.5;" />
<path d="M 338.038 62.3195 C 338.308 56.1598 338.699 43.75 338.822 37.5"
 style=" fill:none; stroke: #000000; stroke-width:0.5;" />
<path d="M 338.822 37.5 C 338.944 31.25 339.102 18.75 339.138 12.5"
 style=" fill:none; stroke: #000000; stroke-width:0.5;" />
<path d="M 339.138 12.5 C 339.173 6.25001 338.782 18.6597 338.354 37.3195"
 style=" fill:none; stroke: #000000; stroke-width:0.5;" />
<path d="M 338.354 37.3195 C 337.927 55.9792 337.769 68.4792 338.038 62.3195"
 style=" fill:none; stroke: #000000; stroke-width:0.5;" />
<path d="M 336.073 87.5 C 335.371 93.75 332.252 105.848 329.834 111.696"
 style=" fill:none; stroke: #000000; stroke-width:0.5;" />
<path d="M 329.834 111.696 C 327.417 117.544 321.875 125.174 318.75 126.955"
 style=" fill:none; stroke: #000000; stroke-width:0.5;" />
<path d="M 318.75 126.955 C 315.625 128.736 306.25 131.317 300 132.116"
 style=" fill:none; stroke: #000000; stroke-width:0.5;" />
<path d="M 300 132.116 C 293.75 132.915 281.25 133.155 275 132.596"
 style=" fill:none; stroke: #000000; stroke-width:0.5;" />
<path d="M 275 132.596 C 268.75 132.037 258.945 129.858 255.391 128.239"
 style=" fill:none; stroke: #000000; stroke-width:0.5;" />
<path d="M 255.391 128.239 C 251.836 126.619 245.586 119.799 242.891 114.599"
 style=" fill:none; stroke: #000000; stroke-width:0.5;" />
<path d="M 242.891 114.599 C 240.195 109.398 237.5 104.198 237.5 104.198"
 style=" fill:none; stroke: #000000; stroke-width:0.5;" />
<text x="231.83" y="89.9377" style=" stroke:none; fill: #000000; font-family:sans-serif; font-size:10;" transform="matrix(0.147838 0.989012 -0.989012 0.147838 286.506 -152.641)">
45</text>
<path d="M 235.004 87.5 C 235.004 87.5 234.587 81.25 234.17 75"
 style=" fill:none; stroke: #000000; stroke-width:0.5;" />
<path d="M 234.17 75 C 233.752 68.75 233.15 56.25 232.965 50"
 style=" fill:none; stroke: #000000; stroke-width:0.5;" />
<path d="M 232.965 50 C 232.779 43.75 232.519 31.25 232.444 25"
 style=" fill:none; stroke: #000000; stroke-width:0.5;" />
<path d="M 232.444 25 C 232.369 18.75 258.59 28.125 284.885 43.75"
 style=" fill:none; stroke: #000000; stroke-width:0.5;" />
<path d="M 284.885 43.75 C 311.181 59.375 336.775 81.25 336.073 87.5"
 style=" fill:none; stroke: #000000; stroke-width:0.5;" />
<path d="M 103.043 109.377 C 104.564 104.689 106.769 93.75 107.452 87.5"
 style=" fill:none; stroke: #000000; stroke-width:0.5;" />
<path d="M 107.452 87.5 C 108.135 81.25 109.1 68.75 109.381 62.5"
 style=" fill:none; stroke: #000000; stroke-width:0.5;" />
<path d="M 109.381 62.5 C 109.663 56.25 110.069 43.75 110.195 37.5"
 style=" fill:none; stroke: #000000; stroke-width:0.5;" />
<path d="M 110.195 37.5 C 110.32 31.25 110.482 18.75 110.519 12.5"
 style=" fill:none; stroke: #000000; stroke-width:0.5;" />
<path d="M 110.519 12.5 C 110.555 6.25 107.944 29.6886 105.296 59.3772"
 style=" fill:none; stroke: #000000; stroke-width:0.5;" />
<path d="M 105.296 59.3772 C 102.648 89.0659 101.521 114.066 103.043 109.377"
 style=" fill:none; stroke: #000000; stroke-width:0.5;" />
<path d="M 84.6896 128.749 C 79.8448 130.623 68.75 132.759 62.5 133.022"
 style=" fill:none; stroke: #000000; stroke-width:0.5;" />
<path d="M 62.5 133.022 C 56.25 133.284 43.75 132.269 37.5 130.992"
 style=" fill:none; stroke: #000000; stroke-width:0.5;" />
<path d="M 37.5 130.992 C 31.25 129.715 21.875 125.179 18.75 121.921"
 style=" fill:none; stroke: #000000; stroke-width:0.5;" />
<path d="M 18.75 121.921 C 15.625 118.663 12.2274 111.553 11.9548 107.702"
 style=" fill:none; stroke: #000000; stroke-width:0.5;" />
<path d="M 11.9548 107.702 C 11.6822 103.851 11.2391 93.75 11.0686 87.5"
 style=" fill:none; stroke: #000000; stroke-width:0.5;" />
<path d="M 11.0686 87.5 C 10.898 81.25 10.6573 68.75 10.5871 62.5"
 style=" fill:none; stroke: #000000; stroke-width:0.5;" />
<path d="M 10.5871 62.5 C 10.5169 56.25 10.4467 50 10.4467 50"
 style=" fill:none; stroke: #000000; stroke-width:0.5;" />
<text x="6.85163" y="31.0176" style=" stroke:none; fill: #000000; font-family:sans-serif; font-size:10;" transform="matrix(0.00500482 0.999987 -0.999987 0.00500482 37.8345 24.0108)">
45</text>
<path d="M 10.3216 25 C 10.3216 25 10.3124 18.75 10.3033 12.5"
 style=" fill:none; stroke: #000000; stroke-width:0.5;" />
<path d="M 10.3033 12.5 C 10.2942 6.24999 31.3086 31.25 52.3321 62.5"
 style=" fill:none; stroke: #000000; stroke-width:0.5;" />
<path d="M 52.3321 62.5 C 73.3556 93.75 89.5343 126.874 84.6896 128.749"
 style=" fill:none; stroke: #000000; stroke-width:0.5;" />
<path d="M 375 156.616 C 368.75 158.647 360.294 164.259 358.088 167.839"
 style=" fill:none; stroke: #000000; stroke-width:0.5;" />
<path d="M 358.088 167.839 C 355.882 171.42 352.757 179.231 351.838 183.462"
 style=" fill:none; stroke: #000000; stroke-width:0.5;" />
<path d="M 351.838 183.462 C 350.919 187.693 349.535 197.068 349.071 202.212"
 style=" fill:none; stroke: #000000; stroke-width:0.5;" />
<path d="M 349.071 202.212 C 348.607 207.356 347.883 218.75 347.623 225"
 style=" fill:none; stroke: #000000; stroke-width:0.5;" />
<path d="M 347.623 225 C 347.364 231.25 346.99 243.75 346.875 250"
 style=" fill:none; stroke: #000000; stroke-width:0.5;" />
<path d="M 346.875 250 C 346.76 256.25 346.615 268.75 346.584 275"
 style=" fill:none; stroke: #000000; stroke-width:0.5;" />
<path d="M 346.584 275 C 346.554 281.25 346.523 287.5 346.523 287.5"
 style=" fill:none; stroke: #000000; stroke-width:0.5;" />
<text x="343.063" y="293.523" style=" stroke:none; fill: #000000; font-family:sans-serif; font-size:10;" transform="matrix(0.00655356 0.999979 -0.999979 0.00655356 634.332 -51.4564)">
45</text>
<path d="M 346.687 312.5 C 346.687 312.5 346.817 318.75 346.947 325"
 style=" fill:none; stroke: #000000; stroke-width:0.5;" />
<path d="M 346.947 325 C 347.078 331.25 347.499 343.75 347.789 350"
 style=" fill:none; stroke: #000000; stroke-width:0.5;" />
<path d="M 347.789 350 C 348.08 356.25 348.778 366.752 349.186 371.005"
 style=" fill:none; stroke: #000000; stroke-width:0.5;" />
<path d="M 349.186 371.005 C 349.593 375.257 353.125 382.033 356.25 384.557"
 style=" fill:none; stroke: #000000; stroke-width:0.5;" />
<path d="M 356.25 384.557 C 359.375 387.081 362.5 389.605 362.5 389.605"
 style=" fill:none; stroke: #000000; stroke-width:0.5;" />
<text x="368.396" y="393.288" style=" stroke:none; fill: #000000; font-family:sans-serif; font-size:10;" transform="matrix(0.999528 0.0307239 -0.0307239 0.999528 12.2572 -11.1329)">
45</text>
<path d="M 387.5 390.374 C 387.5 390.374 387.5 330.918 387.5 271.463"
 style=" fill:none; stroke: #000000; stroke-width:0.5;" />
<path d="M 387.5 271.463 C 387.5 212.008 381.25 154.585 375 156.616"
 style=" fill:none; stroke: #000000; stroke-width:0.5;" />
<path d="M 206.25 160.075 C 209.375 162.216 214.543 170.143 216.586 175.928"
 style=" fill:none; stroke: #000000; stroke-width:0.5;" />
<path d="M 216.586 175.928 C 218.628 181.714 221.315 193.75 221.958 200"
 style=" fill:none; stroke: #000000; stroke-width:0.5;" />
<path d="M 221.958 200 C 222.602 206.25 223.514 218.75 223.783 225"
 style=" fill:none; stroke: #000000; stroke-width:0.5;" />
<path d="M 223.783 225 C 224.052 231.25 224.44 243.75 224.56 250"
 style=" fill:none; stroke: #000000; stroke-width:0.5;" />
<path d="M 224.56 250 C 224.679 256.25 224.829 268.75 224.861 275"
 style=" fill:none; stroke: #000000; stroke-width:0.5;" />
<path d="M 224.861 275 C 224.892 281.25 224.882 293.75 224.839 300"
 style=" fill:none; stroke: #000000; stroke-width:0.5;" />
<path d="M 224.839 300 C 224.797 306.25 224.754 312.5 224.754 312.5"
 style=" fill:none; stroke: #000000; stroke-width:0.5;" />
<text x="227.843" y="331.574" style=" stroke:none; fill: #000000; font-family:sans-serif; font-size:10;" transform="matrix(0.0215928 -0.999767 0.999767 0.0215928 -108.574 552.204)">
45</text>
<path d="M 224.214 337.5 C 224.214 337.5 223.912 343.75 223.611 350"
 style=" fill:none; stroke: #000000; stroke-width:0.5;" />
<path d="M 223.611 350 C 223.309 356.25 222.262 368.75 221.517 375"
 style=" fill:none; stroke: #000000; stroke-width:0.5;" />
<path d="M 221.517 375 C 220.771 381.25 215.02 388.142 210.013 388.784"
 style=" fill:none; stroke: #000000; stroke-width:0.5;" />
<path d="M 210.013 388.784 C 205.007 389.425 193.75 390.156 187.5 390.245"
 style=" fill:none; stroke: #000000; stroke-width:0.5;" />
<path d="M 187.5 390.245 C 181.25 390.334 175 390.423 175 390.423"
 style=" fill:none; stroke: #000000; stroke-width:0.5;" />
<text x="155.976" y="393.792" style=" stroke:none; fill: #000000; font-family:sans-serif; font-size:10;" transform="matrix(0.999976 0.00688658 -0.00688658 0.999976 2.71563 -1.06468)">
45</text>
<path d="M 150 390.251 C 150 390.251 143.75 389.763 137.5 389.276"
 style=" fill:none; stroke: #000000; stroke-width:0.5;" />
<path d="M 137.5 389.276 C 131.25 388.788 123.984 384.975 122.969 381.65"
 style=" fill:none; stroke: #000000; stroke-width:0.5;" />
<path d="M 122.969 381.65 C 121.953 378.325 120.491 368.75 120.044 362.5"
 style=" fill:none; stroke: #000000; stroke-width:0.5;" />
<path d="M 120.044 362.5 C 119.598 356.25 118.954 343.75 118.757 337.5"
 style=" fill:none; stroke: #000000; stroke-width:0.5;" />
<path d="M 118.757 337.5 C 118.56 331.25 118.363 325 118.363 325"
 style=" fill:none; stroke: #000000; stroke-width:0.5;" />
<text x="114.616" y="306.046" style=" stroke:none; fill: #000000; font-family:sans-serif; font-size:10;" transform="matrix(0.0130661 0.999915 -0.999915 0.0130661 419.138 187.441)">
45</text>
<path d="M 118.037 300 C 118.037 300 118.032 293.75 118.027 287.5"
 style=" fill:none; stroke: #000000; stroke-width:0.5;" />
<path d="M 118.027 287.5 C 118.022 281.25 118.086 268.75 118.155 262.5"
 style=" fill:none; stroke: #000000; stroke-width:0.5;" />
<path d="M 118.155 262.5 C 118.225 256.25 118.47 243.75 118.646 237.5"
 style=" fill:none; stroke: #000000; stroke-width:0.5;" />
<path d="M 118.646 237.5 C 118.822 231.25 119.392 218.75 119.786 212.5"
 style=" fill:none; stroke: #000000; stroke-width:0.5;" />
<path d="M 119.786 212.5 C 120.18 206.25 120.574 200 120.574 200"
 style=" fill:none; stroke: #000000; stroke-width:0.5;" />
<text x="125.089" y="194.506" style=" stroke:none; fill: #000000; font-family:sans-serif; font-size:10;" transform="matrix(0.172403 -0.985026 0.985026 0.172403 -88.0702 284.188)">
45</text>
<path d="M 124.95 175 C 124.95 175 126.767 171.875 128.583 168.75"
 style=" fill:none; stroke: #000000; stroke-width:0.5;" />
<path d="M 128.583 168.75 C 130.4 165.625 136.663 160.337 141.108 158.174"
 style=" fill:none; stroke: #000000; stroke-width:0.5;" />
<path d="M 141.108 158.174 C 145.554 156.01 156.25 153.392 162.5 152.937"
 style=" fill:none; stroke: #000000; stroke-width:0.5;" />
<path d="M 162.5 152.937 C 168.75 152.482 181.25 152.968 187.5 153.91"
 style=" fill:none; stroke: #000000; stroke-width:0.5;" />
<path d="M 187.5 153.91 C 193.75 154.852 203.125 157.934 206.25 160.075"
 style=" fill:none; stroke: #000000; stroke-width:0.5;" />
<path d="M 126.218 80.5748 C 126.826 84.0374 129.951 93.5494 132.468 99.5989"
 style=" fill:none; stroke: #000000; stroke-width:0.5;" />
<path d="M 132.468 99.5989 C 134.984 105.648 140.625 113.952 143.75 116.206"
 style=" fill:none; stroke: #000000; stroke-width:0.5;" />
<path d="M 143.75 116.206 C 146.875 118.46 156.25 121.647 162.5 122.58"
 style=" fill:none; stroke: #000000; stroke-width:0.5;" />
<path d="M 162.5 122.58 C 168.75 123.513 181.25 122.515 187.5 120.585"
 style=" fill:none; stroke: #000000; stroke-width:0.5;" />
<path d="M 187.5 120.585 C 193.75 118.654 202.98 112.543 205.96 108.362"
 style=" fill:none; stroke: #000000; stroke-width:0.5;" />
<path d="M 205.96 108.362 C 208.94 104.181 212.802 96.875 213.685 93.75"
 style=" fill:none; stroke: #000000; stroke-width:0.5;" />
<path d="M 213.685 93.75 C 214.568 90.625 216.314 81.25 217.177 75"
 style=" fill:none; stroke: #000000; stroke-width:0.5;" />
<path d="M 217.177 75 C 218.04 68.75 218.904 62.5 218.904 62.5"
 style=" fill:none; stroke: #000000; stroke-width:0.5;" />
<text x="222.766" y="56.7021" style=" stroke:none; fill: #000000; font-family:sans-serif; font-size:10;" transform="matrix(0.0612328 -0.998124 0.998124 0.0612328 152.53 275.578)">
60</text>
<path d="M 220.438 37.5 C 220.438 37.5 220.593 31.25 220.748 25"
 style=" fill:none; stroke: #000000; stroke-width:0.5;" />
<path d="M 220.748 25 C 220.904 18.75 197.045 27.7874 173.03 43.0748"
 style=" fill:none; stroke: #000000; stroke-width:0.5;" />
<path d="M 173.03 43.0748 C 149.015 58.3622 125.609 77.1122 126.218 80.5748"
 style=" fill:none; stroke: #000000; stroke-width:0.5;" />
<path d="M 123.093 50 C 122.721 43.75 122.197 31.25 122.046 25"
 style=" fill:none; stroke: #000000; stroke-width:0.5;" />
<path d="M 122.046 25 C 121.895 18.75 122.268 25 122.791 37.5"
 style=" fill:none; stroke: #000000; stroke-width:0.5;" />
<path d="M 122.791 37.5 C 123.314 50 123.465 56.25 123.093 50"
 style=" fill:none; stroke: #000000; stroke-width:0.5;" />
<path d="M 368.75 112.712 C 371.875 115.855 381.25 120.383 387.5 121.768"
 style=" fill:none; stroke: #000000; stroke-width:0.5;" />
<path d="M 387.5 121.768 C 393.75 123.152 390.625 120.009 381.25 115.482"
 style=" fill:none; stroke: #000000; stroke-width:0.5;" />
<path d="M 381.25 115.482 C 371.875 110.954 365.625 109.569 368.75 112.712"
 style=" fill:none; stroke: #000000; stroke-width:0.5;" />
<path d="M 356.759 87.5 C 355.33 81.25 353.312 68.75 352.724 62.5"
 style=" fill:none; stroke: #000000; stroke-width:0.5;" />
<path d="M 352.724 62.5 C 352.135 56.25 351.285 43.75 351.022 37.5"
 style=" fill:none; stroke: #000000; stroke-width:0.5;" />
<path d="M 351.022 37.5 C 350.76 31.25 350.422 18.75 350.345 12.5"
 style=" fill:none; stroke: #000000; stroke-width:0.5;" />
<path d="M 350.345 12.5 C 350.269 6.25001 352.549 25 354.905 50"
 style=" fill:none; stroke: #000000; stroke-width:0.5;" />
<path d="M 354.905 50 C 357.261 75 358.188 93.75 356.759 87.5"
 style=" fill:none; stroke: #000000; stroke-width:0.5;" />
<path d="M 293.75 161.956 C 296.875 162.331 305.016 165.779 310.032 168.853"
 style=" fill:none; stroke: #000000; stroke-width:0.5;" />
<path d="M 310.032 168.853 C 315.048 171.926 321.752 178.125 323.439 181.25"
 style=" fill:none; stroke: #000000; stroke-width:0.5;" />
<path d="M 323.439 181.25 C 325.127 184.375 328.121 193.75 329.427 200"
 style=" fill:none; stroke: #000000; stroke-width:0.5;" />
<path d="M 329.427 200 C 330.733 206.25 332.585 218.75 333.132 225"
 style=" fill:none; stroke: #000000; stroke-width:0.5;" />
<path d="M 333.132 225 C 333.678 231.25 334.466 243.75 334.708 250"
 style=" fill:none; stroke: #000000; stroke-width:0.5;" />
<path d="M 334.708 250 C 334.949 256.25 335.255 268.75 335.319 275"
 style=" fill:none; stroke: #000000; stroke-width:0.5;" />
<path d="M 335.319 275 C 335.383 281.25 335.361 293.75 335.275 300"
 style=" fill:none; stroke: #000000; stroke-width:0.5;" />
<path d="M 335.275 300 C 335.189 306.25 335.103 312.5 335.103 312.5"
 style=" fill:none; stroke: #000000; stroke-width:0.5;" />
<text x="337.766" y="331.647" style=" stroke:none; fill: #000000; font-family:sans-serif; font-size:10;" transform="matrix(0.0438021 -0.99904 0.99904 0.0438021 -8.35749 654.562)">
60</text>
<path d="M 334.006 337.5 C 334.006 337.5 333.394 343.75 332.782 350"
 style=" fill:none; stroke: #000000; stroke-width:0.5;" />
<path d="M 332.782 350 C 332.169 356.25 330.044 368.75 328.531 375"
 style=" fill:none; stroke: #000000; stroke-width:0.5;" />
<path d="M 328.531 375 C 327.018 381.25 322.254 387.862 319.002 388.224"
 style=" fill:none; stroke: #000000; stroke-width:0.5;" />
<path d="M 319.002 388.224 C 315.751 388.587 306.25 389.1 300 389.252"
 style=" fill:none; stroke: #000000; stroke-width:0.5;" />
<path d="M 300 389.252 C 293.75 389.404 287.5 389.555 287.5 389.555"
 style=" fill:none; stroke: #000000; stroke-width:0.5;" />
<text x="268.442" y="392.732" style=" stroke:none; fill: #000000; font-family:sans-serif; font-size:10;" transform="matrix(0.999856 0.0169697 -0.0169697 0.999856 6.7032 -4.49882)">
60</text>
<path d="M 262.5 389.131 C 262.5 389.131 258.402 388.723 254.305 388.315"
 style=" fill:none; stroke: #000000; stroke-width:0.5;" />
<path d="M 254.305 388.315 C 250.207 387.908 244.538 381.25 242.967 375"
 style=" fill:none; stroke: #000000; stroke-width:0.5;" />
<path d="M 242.967 375 C 241.395 368.75 239.243 356.98 238.662 351.46"
 style=" fill:none; stroke: #000000; stroke-width:0.5;" />
<path d="M 238.662 351.46 C 238.081 345.939 237.292 336.564 237.083 332.71"
 style=" fill:none; stroke: #000000; stroke-width:0.5;" />
<path d="M 237.083 332.71 C 236.875 328.855 236.666 325 236.666 325"
 style=" fill:none; stroke: #000000; stroke-width:0.5;" />
<text x="232.673" y="306.093" style=" stroke:none; fill: #000000; font-family:sans-serif; font-size:10;" transform="matrix(0.0259979 0.999662 -0.999662 0.0259979 532.614 65.5409)">
60</text>
<path d="M 236.016 300 C 236.016 300 236.006 293.75 235.996 287.5"
 style=" fill:none; stroke: #000000; stroke-width:0.5;" />
<path d="M 235.996 287.5 C 235.986 281.25 236.114 268.75 236.252 262.5"
 style=" fill:none; stroke: #000000; stroke-width:0.5;" />
<path d="M 236.252 262.5 C 236.39 256.25 236.771 245.276 237.014 240.551"
 style=" fill:none; stroke: #000000; stroke-width:0.5;" />
<path d="M 237.014 240.551 C 237.257 235.827 237.956 226.452 238.411 221.801"
 style=" fill:none; stroke: #000000; stroke-width:0.5;" />
<path d="M 238.411 221.801 C 238.867 217.151 239.323 212.5 239.323 212.5"
 style=" fill:none; stroke: #000000; stroke-width:0.5;" />
<text x="244.078" y="207.095" style=" stroke:none; fill: #000000; font-family:sans-serif; font-size:10;" transform="matrix(0.212129 -0.977242 0.977242 0.212129 -10.08 401.687)">
60</text>
<path d="M 244.75 187.5 C 244.75 187.5 246.343 184.375 247.937 181.25"
 style=" fill:none; stroke: #000000; stroke-width:0.5;" />
<path d="M 247.937 181.25 C 249.53 178.125 256.611 171.875 262.098 168.75"
 style=" fill:none; stroke: #000000; stroke-width:0.5;" />
<path d="M 262.098 168.75 C 267.585 165.625 276.679 162.176 280.286 161.853"
 style=" fill:none; stroke: #000000; stroke-width:0.5;" />
<path d="M 280.286 161.853 C 283.893 161.529 290.625 161.581 293.75 161.956"
 style=" fill:none; stroke: #000000; stroke-width:0.5;" />
<path d="M 68.75 162.534 C 71.875 163.108 79.1388 166.512 83.2777 169.341"
 style=" fill:none; stroke: #000000; stroke-width:0.5;" />
<path d="M 83.2777 169.341 C 87.4165 172.171 93.6665 179.5 95.7777 184.001"
 style=" fill:none; stroke: #000000; stroke-width:0.5;" />
<path d="M 95.7777 184.001 C 97.8888 188.501 100.882 197.876 101.763 202.751"
 style=" fill:none; stroke: #000000; stroke-width:0.5;" />
<path d="M 101.763 202.751 C 102.645 207.625 104.058 218.75 104.59 225"
 style=" fill:none; stroke: #000000; stroke-width:0.5;" />
<path d="M 104.59 225 C 105.121 231.25 105.888 243.75 106.123 250"
 style=" fill:none; stroke: #000000; stroke-width:0.5;" />
<path d="M 106.123 250 C 106.359 256.25 106.656 268.75 106.719 275"
 style=" fill:none; stroke: #000000; stroke-width:0.5;" />
<path d="M 106.719 275 C 106.781 281.25 106.759 293.75 106.676 300"
 style=" fill:none; stroke: #000000; stroke-width:0.5;" />
<path d="M 106.676 300 C 106.592 306.25 106.508 312.5 106.508 312.5"
 style=" fill:none; stroke: #000000; stroke-width:0.5;" />
<text x="109.194" y="331.643" style=" stroke:none; fill: #000000; font-family:sans-serif; font-size:10;" transform="matrix(0.0426292 -0.999091 0.999091 0.0426292 -226.802 426.6)">
60</text>
<path d="M 105.441 337.5 C 105.441 337.5 104.845 343.75 104.249 350"
 style=" fill:none; stroke: #000000; stroke-width:0.5;" />
<path d="M 104.249 350 C 103.653 356.25 102.293 366.489 101.529 370.478"
 style=" fill:none; stroke: #000000; stroke-width:0.5;" />
<path d="M 101.529 370.478 C 100.764 374.467 96.875 381.018 93.75 383.581"
 style=" fill:none; stroke: #000000; stroke-width:0.5;" />
<path d="M 93.75 383.581 C 90.625 386.144 81.25 388.914 75 389.122"
 style=" fill:none; stroke: #000000; stroke-width:0.5;" />
<path d="M 75 389.122 C 68.75 389.33 62.5 389.538 62.5 389.538"
 style=" fill:none; stroke: #000000; stroke-width:0.5;" />
<text x="43.4626" y="392.833" style=" stroke:none; fill: #000000; font-family:sans-serif; font-size:10;" transform="matrix(0.999942 0.0107843 -0.0107843 0.999942 4.23895 -0.445931)">
60</text>
<path d="M 37.5 389.269 C 37.5 389.269 32.5251 388.826 27.5503 388.384"
 style=" fill:none; stroke: #000000; stroke-width:0.5;" />
<path d="M 27.5503 388.384 C 22.5754 387.942 16.3254 383.28 15.0503 379.059"
 style=" fill:none; stroke: #000000; stroke-width:0.5;" />
<path d="M 15.0503 379.059 C 13.7751 374.839 12.3273 365.464 12.1546 360.309"
 style=" fill:none; stroke: #000000; stroke-width:0.5;" />
<path d="M 12.1546 360.309 C 11.982 355.155 11.7093 343.75 11.6092 337.5"
 style=" fill:none; stroke: #000000; stroke-width:0.5;" />
<path d="M 11.6092 337.5 C 11.5092 331.25 11.4092 325 11.4092 325"
 style=" fill:none; stroke: #000000; stroke-width:0.5;" />
<text x="7.78326" y="306.023" style=" stroke:none; fill: #000000; font-family:sans-serif; font-size:10;" transform="matrix(0.00663271 0.999978 -0.999978 0.00663271 313.748 296.21)">
60</text>
<path d="M 11.2434 300 C 11.2434 300 11.2408 293.75 11.2382 287.5"
 style=" fill:none; stroke: #000000; stroke-width:0.5;" />
<path d="M 11.2382 287.5 C 11.2357 281.25 11.2684 268.75 11.3036 262.5"
 style=" fill:none; stroke: #000000; stroke-width:0.5;" />
<path d="M 11.3036 262.5 C 11.3389 256.25 11.4634 243.75 11.5527 237.5"
 style=" fill:none; stroke: #000000; stroke-width:0.5;" />
<path d="M 11.5527 237.5 C 11.642 231.25 11.9235 218.925 12.1156 212.849"
 style=" fill:none; stroke: #000000; stroke-width:0.5;" />
<path d="M 12.1156 212.849 C 12.3078 206.774 12.5 200.698 12.5 200.698"
 style=" fill:none; stroke: #000000; stroke-width:0.5;" />
<text x="15.9657" y="201.299" style=" stroke:none; fill: #000000; font-family:sans-serif; font-size:10;" transform="matrix(0.268003 -0.963418 0.963418 0.268003 -182.248 162.732)">
60</text>
<path d="M 16.1714 187.5 C 16.1714 187.5 18.3786 183.643 20.5857 179.787"
 style=" fill:none; stroke: #000000; stroke-width:0.5;" />
<path d="M 20.5857 179.787 C 22.7929 175.93 30.0424 169.68 35.0848 167.287"
 style=" fill:none; stroke: #000000; stroke-width:0.5;" />
<path d="M 35.0848 167.287 C 40.1271 164.893 49.5021 162.221 53.8348 161.942"
 style=" fill:none; stroke: #000000; stroke-width:0.5;" />
<path d="M 53.8348 161.942 C 58.1674 161.664 65.625 161.959 68.75 162.534"
 style=" fill:none; stroke: #000000; stroke-width:0.5;" />
<path d="M 363.264 29.0018 C 363.646 33.2509 365.247 43.75 366.468 50"
 style=" fill:none; stroke: #000000; stroke-width:0.5;" />
<path d="M 366.468 50 C 367.688 56.25 370.431 66.5589 371.954 70.6177"
 style=" fill:none; stroke: #000000; stroke-width:0.5;" />
<path d="M 371.954 70.6177 C 373.477 74.6766 378.125 82.0075 381.25 85.2795"
 style=" fill:none; stroke: #000000; stroke-width:0.5;" />
<path d="M 381.25 85.2795 C 384.375 88.5516 381.25 73.9937 375 56.1636"
 style=" fill:none; stroke: #000000; stroke-width:0.5;" />
<path d="M 375 56.1636 C 368.75 38.3336 362.882 24.7527 363.264 29.0018"
 style=" fill:none; stroke: #000000; stroke-width:0.5;" />
<path d="M 141.235 63.5431 C 143.102 69.2716 147.197 78.125 149.424 81.25"
 style=" fill:none; stroke: #000000; stroke-width:0.5;" />
<path d="M 149.424 81.25 C 151.65 84.375 159.158 89.3403 164.439 91.1805"
 style=" fill:none; stroke: #000000; stroke-width:0.5;" />
<path d="M 164.439 91.1805 C 169.719 93.0208 178.594 93.0208 182.188 91.1805"
 style=" fill:none; stroke: #000000; stroke-width:0.5;" />
<path d="M 182.188 91.1805 C 185.782 89.3403 192.032 83.4361 194.688 79.3721"
 style=" fill:none; stroke: #000000; stroke-width:0.5;" />
<path d="M 194.688 79.3721 C 197.344 75.3082 201.349 65.9332 202.698 60.6221"
 style=" fill:none; stroke: #000000; stroke-width:0.5;" />
<path d="M 202.698 60.6221 C 204.048 55.3111 206.145 43.75 206.893 37.5"
 style=" fill:none; stroke: #000000; stroke-width:0.5;" />
<path d="M 206.893 37.5 C 207.641 31.25 208.607 18.75 208.825 12.5"
 style=" fill:none; stroke: #000000; stroke-width:0.5;" />
<path d="M 208.825 12.5 C 209.043 6.25 191.321 13.0216 173.38 26.0431"
 style=" fill:none; stroke: #000000; stroke-width:0.5;" />
<path d="M 173.38 26.0431 C 155.44 39.0647 139.367 57.8147 141.235 63.5431"
 style=" fill:none; stroke: #000000; stroke-width:0.5;" />
<path d="M 135.751 37.5 C 135.066 31.25 134.182 18.75 133.982 12.5"
 style=" fill:none; stroke: #000000; stroke-width:0.5;" />
<path d="M 133.982 12.5 C 133.783 6.25 134.467 12.5 135.352 25"
 style=" fill:none; stroke: #000000; stroke-width:0.5;" />
<path d="M 135.352 25 C 136.236 37.5 136.435 43.75 135.751 37.5"
 style=" fill:none; stroke: #000000; stroke-width:0.5;" />
<path d="M 306.25 202.663 C 309.375 206.497 313.709 213.998 314.918 217.665"
 style=" fill:none; stroke: #000000; stroke-width:0.5;" />
<path d="M 314.918 217.665 C 316.126 221.333 318.442 231.25 319.549 237.5"
 style=" fill:none; stroke: #000000; stroke-width:0.5;" />
<path d="M 319.549 237.5 C 320.656 243.75 322.2 256.25 322.637 262.5"
 style=" fill:none; stroke: #000000; stroke-width:0.5;" />
<path d="M 322.637 262.5 C 323.075 268.75 323.48 281.25 323.448 287.5"
 style=" fill:none; stroke: #000000; stroke-width:0.5;" />
<path d="M 323.448 287.5 C 323.416 293.75 322.871 306.25 322.356 312.5"
 style=" fill:none; stroke: #000000; stroke-width:0.5;" />
<path d="M 322.356 312.5 C 321.842 318.75 320.088 331.25 318.848 337.5"
 style=" fill:none; stroke: #000000; stroke-width:0.5;" />
<path d="M 318.848 337.5 C 317.608 343.75 315.2 353.125 314.032 356.25"
 style=" fill:none; stroke: #000000; stroke-width:0.5;" />
<path d="M 314.032 356.25 C 312.863 359.375 308.772 366.002 305.848 369.504"
 style=" fill:none; stroke: #000000; stroke-width:0.5;" />
<path d="M 305.848 369.504 C 302.924 373.006 300 376.508 300 376.508"
 style=" fill:none; stroke: #000000; stroke-width:0.5;" />
<text x="281.294" y="381.486" style=" stroke:none; fill: #000000; font-family:sans-serif; font-size:10;" transform="matrix(0.996937 -0.0782137 0.0782137 0.996937 -28.9758 23.1695)">
75</text>
<path d="M 275 378.469 C 275 378.469 271.875 375.677 268.75 372.885"
 style=" fill:none; stroke: #000000; stroke-width:0.5;" />
<path d="M 268.75 372.885 C 265.625 370.094 260.662 362.976 258.824 358.651"
 style=" fill:none; stroke: #000000; stroke-width:0.5;" />
<path d="M 258.824 358.651 C 256.986 354.325 253.86 344.137 252.574 338.274"
 style=" fill:none; stroke: #000000; stroke-width:0.5;" />
<path d="M 252.574 338.274 C 251.287 332.411 249.669 323.036 249.339 319.524"
 style=" fill:none; stroke: #000000; stroke-width:0.5;" />
<path d="M 249.339 319.524 C 249.008 316.012 248.678 312.5 248.678 312.5"
 style=" fill:none; stroke: #000000; stroke-width:0.5;" />
<text x="244.499" y="293.63" style=" stroke:none; fill: #000000; font-family:sans-serif; font-size:10;" transform="matrix(0.0358104 0.999359 -0.999359 0.0358104 529.185 38.7727)">
75</text>
<path d="M 247.782 287.5 C 247.782 287.5 247.948 281.25 248.115 275"
 style=" fill:none; stroke: #000000; stroke-width:0.5;" />
<path d="M 248.115 275 C 248.281 268.75 248.836 258.153 249.224 253.807"
 style=" fill:none; stroke: #000000; stroke-width:0.5;" />
<path d="M 249.224 253.807 C 249.612 249.46 251.024 240.085 252.047 235.057"
 style=" fill:none; stroke: #000000; stroke-width:0.5;" />
<path d="M 252.047 235.057 C 253.071 230.028 256.196 219.78 258.297 214.561"
 style=" fill:none; stroke: #000000; stroke-width:0.5;" />
<path d="M 258.297 214.561 C 260.399 209.341 262.5 204.121 262.5 204.121"
 style=" fill:none; stroke: #000000; stroke-width:0.5;" />
<text x="266.224" y="205.492" style=" stroke:none; fill: #000000; font-family:sans-serif; font-size:10;" transform="matrix(0.746758 -0.665096 0.665096 0.746758 -69.2528 229.104)">
75</text>
<path d="M 275 192.988 C 275 192.988 281.25 193.49 287.5 193.992"
 style=" fill:none; stroke: #000000; stroke-width:0.5;" />
<path d="M 287.5 193.992 C 293.75 194.494 303.125 198.83 306.25 202.663"
 style=" fill:none; stroke: #000000; stroke-width:0.5;" />
<path d="M 79.7689 205.131 C 82.1533 208.815 85.6556 215.625 86.7734 218.75"
 style=" fill:none; stroke: #000000; stroke-width:0.5;" />
<path d="M 86.7734 218.75 C 87.8912 221.875 90.042 231.25 91.075 237.5"
 style=" fill:none; stroke: #000000; stroke-width:0.5;" />
<path d="M 91.075 237.5 C 92.108 243.75 93.5489 256.25 93.9568 262.5"
 style=" fill:none; stroke: #000000; stroke-width:0.5;" />
<path d="M 93.9568 262.5 C 94.3647 268.75 94.7429 281.25 94.7132 287.5"
 style=" fill:none; stroke: #000000; stroke-width:0.5;" />
<path d="M 94.7132 287.5 C 94.6835 293.75 94.1742 306.25 93.6945 312.5"
 style=" fill:none; stroke: #000000; stroke-width:0.5;" />
<path d="M 93.6945 312.5 C 93.2148 318.75 91.578 331.25 90.4208 337.5"
 style=" fill:none; stroke: #000000; stroke-width:0.5;" />
<path d="M 90.4208 337.5 C 89.2636 343.75 86.7491 353.125 85.3917 356.25"
 style=" fill:none; stroke: #000000; stroke-width:0.5;" />
<path d="M 85.3917 356.25 C 84.0343 359.375 80.2317 365.625 77.7864 368.75"
 style=" fill:none; stroke: #000000; stroke-width:0.5;" />
<path d="M 77.7864 368.75 C 75.3411 371.875 72.8958 375 72.8958 375"
 style=" fill:none; stroke: #000000; stroke-width:0.5;" />
<text x="55.8047" y="382.161" style=" stroke:none; fill: #000000; font-family:sans-serif; font-size:10;" transform="matrix(0.978708 -0.205258 0.205258 0.978708 -77.2534 19.5913)">
75</text>
<path d="M 50 379.802 C 50 379.802 46.875 377.814 43.75 375.827"
 style=" fill:none; stroke: #000000; stroke-width:0.5;" />
<path d="M 43.75 375.827 C 40.625 373.84 34.6989 366.389 31.8978 360.926"
 style=" fill:none; stroke: #000000; stroke-width:0.5;" />
<path d="M 31.8978 360.926 C 29.0968 355.463 25.544 346.875 24.7924 343.75"
 style=" fill:none; stroke: #000000; stroke-width:0.5;" />
<path d="M 24.7924 343.75 C 24.0407 340.625 22.5414 331.25 21.7938 325"
 style=" fill:none; stroke: #000000; stroke-width:0.5;" />
<path d="M 21.7938 325 C 21.0462 318.75 20.2986 312.5 20.2986 312.5"
 style=" fill:none; stroke: #000000; stroke-width:0.5;" />
<text x="16.0859" y="293.636" style=" stroke:none; fill: #000000; font-family:sans-serif; font-size:10;" transform="matrix(0.0376235 0.999292 -0.999292 0.0376235 308.909 266.514)">
75</text>
<path d="M 19.3573 287.5 C 19.3573 287.5 19.5322 281.25 19.7071 275"
 style=" fill:none; stroke: #000000; stroke-width:0.5;" />
<path d="M 19.7071 275 C 19.8819 268.75 20.7165 256.25 21.3763 250"
 style=" fill:none; stroke: #000000; stroke-width:0.5;" />
<path d="M 21.3763 250 C 22.036 243.75 23.3039 234.375 23.912 231.25"
 style=" fill:none; stroke: #000000; stroke-width:0.5;" />
<path d="M 23.912 231.25 C 24.5202 228.125 28.1222 218.75 31.1161 212.5"
 style=" fill:none; stroke: #000000; stroke-width:0.5;" />
<path d="M 31.1161 212.5 C 34.11 206.25 37.1039 200 37.1039 200"
 style=" fill:none; stroke: #000000; stroke-width:0.5;" />
<text x="40.0072" y="202.288" style=" stroke:none; fill: #000000; font-family:sans-serif; font-size:10;" transform="matrix(0.838636 -0.544692 0.544692 0.838636 -103.729 54.4336)">
75</text>
<path d="M 50 191.624 C 50 191.624 56.25 193.158 62.5 194.693"
 style=" fill:none; stroke: #000000; stroke-width:0.5;" />
<path d="M 62.5 194.693 C 68.75 196.227 77.3844 201.446 79.7689 205.131"
 style=" fill:none; stroke: #000000; stroke-width:0.5;" />
</svg>
